<svg width="95" height="99" viewBox="0 0 95 99" fill="none" xmlns="http://www.w3.org/2000/svg">
<mask id="path-1-outside-1_25_56" maskUnits="userSpaceOnUse" x="-12" y="-19" width="121" height="130" fill="black">
<rect fill="white" x="-12" y="-19" width="121" height="130"/>
<path d="M94.256 59.08C93.6587 60.5307 92.72 61.384 91.44 61.64C90.16 61.8107 88.624 61.8533 86.832 61.768C86.32 61.6827 85.7227 61.64 85.04 61.64C84.4427 61.64 83.8453 61.64 83.248 61.64C78.8107 61.7253 73.904 61.8533 68.528 62.024C63.2373 62.1947 57.9893 62.6213 52.784 63.304C52.6987 64.6693 52.6987 66.504 52.784 68.808C52.9547 71.0267 53.1253 73.4587 53.296 76.104C53.552 79.5173 53.7653 83.016 53.936 86.6C54.192 90.184 54.192 93.2987 53.936 95.944C52.5707 97.5653 51.248 98.2907 49.968 98.12C48.688 98.0347 47.536 97.48 46.512 96.456C45.488 95.432 44.6347 94.1093 43.952 92.488C43.3547 90.7813 43.0133 89.16 42.928 87.624C42.8427 86.088 43.0987 84.9787 43.696 84.296C43.8667 80.7973 43.824 77.2987 43.568 73.8C43.312 70.3013 43.0133 67.144 42.672 64.328C41.648 64.4133 40.0267 64.5413 37.808 64.712C35.5893 64.7973 33.1147 64.968 30.384 65.224C27.7387 65.48 25.1787 65.7787 22.704 66.12C20.2293 66.4613 18.1813 66.888 16.56 67.4C15.536 67.7413 14.7253 68.2107 14.128 68.808C13.5307 69.32 12.72 69.576 11.696 69.576C10.3307 69.576 8.96533 69.064 7.6 68.04C6.23467 66.9307 4.99733 65.608 3.888 64.072C2.77867 62.536 1.88267 61.0853 1.2 59.72C0.602667 58.2693 0.304001 57.2027 0.304001 56.52C1.072 56.1787 1.968 56.1787 2.992 56.52C4.10133 56.776 5.21067 57.16 6.32 57.672C6.832 57.928 7.344 58.184 7.856 58.44C8.368 58.6107 8.88 58.7387 9.392 58.824C12.464 58.312 15.92 57.8853 19.76 57.544C23.6 57.1173 27.44 56.7333 31.28 56.392C35.2053 55.9653 38.7467 55.624 41.904 55.368C41.9893 53.9173 41.9467 51.9973 41.776 49.608C41.6907 47.2187 41.5627 44.8293 41.392 42.44C41.2213 40.0507 41.008 38.216 40.752 36.936C39.216 37.192 37.296 37.4053 34.992 37.576C32.7733 37.6613 30.512 37.7893 28.208 37.96C25.9893 38.0453 24.112 38.1733 22.576 38.344C22.1493 38.344 21.7227 38.4293 21.296 38.6C20.9547 38.6853 20.5707 38.8133 20.144 38.984C19.632 39.1547 19.12 39.3253 18.608 39.496C18.096 39.6667 17.6267 39.7093 17.2 39.624C15.664 39.2827 14.256 38.216 12.976 36.424C11.696 34.632 10.5867 32.712 9.648 30.664C8.79467 28.616 8.06934 27.0373 7.472 25.928C8.32533 25.5013 9.22133 25.5013 10.16 25.928C11.184 26.2693 12.1653 26.7387 13.104 27.336C13.5307 27.592 13.9573 27.848 14.384 28.104C14.896 28.2747 15.3653 28.4453 15.792 28.616C18.608 28.7013 21.5093 28.5733 24.496 28.232C27.4827 27.8907 30.384 27.5493 33.2 27.208C34.3947 27.0373 35.5467 26.8667 36.656 26.696C37.7653 26.5253 38.8747 26.3973 39.984 26.312C39.984 22.0453 39.4293 17.736 38.32 13.384C37.2107 9.032 35.6747 5.448 33.712 2.632C33.7973 2.46133 33.968 2.29066 34.224 2.12C34.3947 2.03466 34.5227 1.90666 34.608 1.73599C34.7787 1.48 34.8213 1.13866 34.736 0.711998C38.7467 2.33333 42.544 4.33866 46.128 6.728C49.7973 9.11733 52.1867 12.232 53.296 16.072C51.8453 16.84 51.0347 18.0347 50.864 19.656C50.7787 21.2773 50.7787 22.6427 50.864 23.752C50.9493 24.52 50.992 25.032 50.992 25.288C52.1867 25.1173 53.3813 24.9893 54.576 24.904C55.7707 24.8187 56.9227 24.776 58.032 24.776C60.1653 24.6907 62.1707 24.52 64.048 24.264C65.9253 24.008 67.5893 23.3253 69.04 22.216C71.7707 22.8133 74.3733 23.7947 76.848 25.16C79.3227 26.5253 81.1147 28.0613 82.224 29.768C81.5413 31.6453 80.0907 32.84 77.872 33.352C75.7387 33.864 73.776 34.1627 71.984 34.248C68.8267 34.4187 65.4133 34.5893 61.744 34.76C58.16 34.8453 54.7893 35.2293 51.632 35.912C51.376 37.192 51.2907 38.984 51.376 41.288C51.4613 43.592 51.5467 45.8533 51.632 48.072C51.7173 49.2667 51.76 50.4187 51.76 51.528C51.8453 52.552 51.888 53.4907 51.888 54.344C54.3627 54.1733 57.648 53.96 61.744 53.704C65.9253 53.3627 69.7227 53.1493 73.136 53.064C73.5627 52.9787 73.776 52.68 73.776 52.168C73.776 51.5707 73.9467 51.2293 74.288 51.144C78.0427 51.4853 81.7547 52.2533 85.424 53.448C89.1787 54.6427 92.1227 56.52 94.256 59.08Z"/>
</mask>
<path d="M94.256 59.08C93.6587 60.5307 92.72 61.384 91.44 61.64C90.16 61.8107 88.624 61.8533 86.832 61.768C86.32 61.6827 85.7227 61.64 85.04 61.64C84.4427 61.64 83.8453 61.64 83.248 61.64C78.8107 61.7253 73.904 61.8533 68.528 62.024C63.2373 62.1947 57.9893 62.6213 52.784 63.304C52.6987 64.6693 52.6987 66.504 52.784 68.808C52.9547 71.0267 53.1253 73.4587 53.296 76.104C53.552 79.5173 53.7653 83.016 53.936 86.6C54.192 90.184 54.192 93.2987 53.936 95.944C52.5707 97.5653 51.248 98.2907 49.968 98.12C48.688 98.0347 47.536 97.48 46.512 96.456C45.488 95.432 44.6347 94.1093 43.952 92.488C43.3547 90.7813 43.0133 89.16 42.928 87.624C42.8427 86.088 43.0987 84.9787 43.696 84.296C43.8667 80.7973 43.824 77.2987 43.568 73.8C43.312 70.3013 43.0133 67.144 42.672 64.328C41.648 64.4133 40.0267 64.5413 37.808 64.712C35.5893 64.7973 33.1147 64.968 30.384 65.224C27.7387 65.48 25.1787 65.7787 22.704 66.12C20.2293 66.4613 18.1813 66.888 16.56 67.4C15.536 67.7413 14.7253 68.2107 14.128 68.808C13.5307 69.32 12.72 69.576 11.696 69.576C10.3307 69.576 8.96533 69.064 7.6 68.04C6.23467 66.9307 4.99733 65.608 3.888 64.072C2.77867 62.536 1.88267 61.0853 1.2 59.72C0.602667 58.2693 0.304001 57.2027 0.304001 56.52C1.072 56.1787 1.968 56.1787 2.992 56.52C4.10133 56.776 5.21067 57.16 6.32 57.672C6.832 57.928 7.344 58.184 7.856 58.44C8.368 58.6107 8.88 58.7387 9.392 58.824C12.464 58.312 15.92 57.8853 19.76 57.544C23.6 57.1173 27.44 56.7333 31.28 56.392C35.2053 55.9653 38.7467 55.624 41.904 55.368C41.9893 53.9173 41.9467 51.9973 41.776 49.608C41.6907 47.2187 41.5627 44.8293 41.392 42.44C41.2213 40.0507 41.008 38.216 40.752 36.936C39.216 37.192 37.296 37.4053 34.992 37.576C32.7733 37.6613 30.512 37.7893 28.208 37.96C25.9893 38.0453 24.112 38.1733 22.576 38.344C22.1493 38.344 21.7227 38.4293 21.296 38.6C20.9547 38.6853 20.5707 38.8133 20.144 38.984C19.632 39.1547 19.12 39.3253 18.608 39.496C18.096 39.6667 17.6267 39.7093 17.2 39.624C15.664 39.2827 14.256 38.216 12.976 36.424C11.696 34.632 10.5867 32.712 9.648 30.664C8.79467 28.616 8.06934 27.0373 7.472 25.928C8.32533 25.5013 9.22133 25.5013 10.16 25.928C11.184 26.2693 12.1653 26.7387 13.104 27.336C13.5307 27.592 13.9573 27.848 14.384 28.104C14.896 28.2747 15.3653 28.4453 15.792 28.616C18.608 28.7013 21.5093 28.5733 24.496 28.232C27.4827 27.8907 30.384 27.5493 33.2 27.208C34.3947 27.0373 35.5467 26.8667 36.656 26.696C37.7653 26.5253 38.8747 26.3973 39.984 26.312C39.984 22.0453 39.4293 17.736 38.32 13.384C37.2107 9.032 35.6747 5.448 33.712 2.632C33.7973 2.46133 33.968 2.29066 34.224 2.12C34.3947 2.03466 34.5227 1.90666 34.608 1.73599C34.7787 1.48 34.8213 1.13866 34.736 0.711998C38.7467 2.33333 42.544 4.33866 46.128 6.728C49.7973 9.11733 52.1867 12.232 53.296 16.072C51.8453 16.84 51.0347 18.0347 50.864 19.656C50.7787 21.2773 50.7787 22.6427 50.864 23.752C50.9493 24.52 50.992 25.032 50.992 25.288C52.1867 25.1173 53.3813 24.9893 54.576 24.904C55.7707 24.8187 56.9227 24.776 58.032 24.776C60.1653 24.6907 62.1707 24.52 64.048 24.264C65.9253 24.008 67.5893 23.3253 69.04 22.216C71.7707 22.8133 74.3733 23.7947 76.848 25.16C79.3227 26.5253 81.1147 28.0613 82.224 29.768C81.5413 31.6453 80.0907 32.84 77.872 33.352C75.7387 33.864 73.776 34.1627 71.984 34.248C68.8267 34.4187 65.4133 34.5893 61.744 34.76C58.16 34.8453 54.7893 35.2293 51.632 35.912C51.376 37.192 51.2907 38.984 51.376 41.288C51.4613 43.592 51.5467 45.8533 51.632 48.072C51.7173 49.2667 51.76 50.4187 51.76 51.528C51.8453 52.552 51.888 53.4907 51.888 54.344C54.3627 54.1733 57.648 53.96 61.744 53.704C65.9253 53.3627 69.7227 53.1493 73.136 53.064C73.5627 52.9787 73.776 52.68 73.776 52.168C73.776 51.5707 73.9467 51.2293 74.288 51.144C78.0427 51.4853 81.7547 52.2533 85.424 53.448C89.1787 54.6427 92.1227 56.52 94.256 59.08Z" fill="white"/>
<path d="M94.256 59.08L105.352 63.649L108.108 56.9573L103.475 51.3978L94.256 59.08ZM91.44 61.64L93.026 73.5347L93.4117 73.4833L93.7934 73.407L91.44 61.64ZM86.832 61.768L84.8593 73.6047L85.5558 73.7208L86.2612 73.7544L86.832 61.768ZM83.248 61.64V49.64H83.1326L83.0173 49.6422L83.248 61.64ZM68.528 62.024L68.1472 50.03L68.1411 50.0302L68.528 62.024ZM52.784 63.304L51.2236 51.4059L41.4239 52.6911L40.8074 62.5555L52.784 63.304ZM52.784 68.808L40.7922 69.2521L40.8011 69.4905L40.8193 69.7283L52.784 68.808ZM53.296 76.104L41.3209 76.8766L41.3249 76.9391L41.3296 77.0015L53.296 76.104ZM53.936 86.6L41.9496 87.1708L41.9564 87.313L41.9665 87.455L53.936 86.6ZM53.936 95.944L63.1149 103.674L65.5205 100.817L65.8802 97.0999L53.936 95.944ZM49.968 98.12L51.554 86.2253L51.1614 86.1729L50.7662 86.1466L49.968 98.12ZM46.512 96.456L38.0267 104.941L38.0267 104.941L46.512 96.456ZM43.952 92.488L32.6257 96.4522L32.7483 96.8026L32.8924 97.1447L43.952 92.488ZM42.928 87.624L30.9465 88.2896L30.9465 88.2897L42.928 87.624ZM43.696 84.296L52.7269 92.1981L55.4782 89.0538L55.6818 84.8807L43.696 84.296ZM43.568 73.8L55.536 72.9243L55.536 72.9243L43.568 73.8ZM42.672 64.328L54.5848 62.884L53.194 51.4096L41.6755 52.3695L42.672 64.328ZM37.808 64.712L38.2692 76.7031L38.499 76.6943L38.7284 76.6767L37.808 64.712ZM30.384 65.224L29.2639 53.2764L29.246 53.2781L29.2281 53.2798L30.384 65.224ZM22.704 66.12L24.3436 78.0075L24.3437 78.0075L22.704 66.12ZM16.56 67.4L12.9464 55.957L12.8556 55.9857L12.7653 56.0158L16.56 67.4ZM14.128 68.808L21.9375 77.9191L22.2874 77.6192L22.6133 77.2933L14.128 68.808ZM7.6 68.04L0.0328866 77.3534L0.213663 77.5002L0.400003 77.64L7.6 68.04ZM3.888 64.072L-5.84015 71.0979L-5.84015 71.0979L3.888 64.072ZM1.2 59.72L-9.89614 64.289L-9.7292 64.6944L-9.53313 65.0866L1.2 59.72ZM0.304001 56.52L-4.56964 45.5542L-11.696 48.7215V56.52H0.304001ZM2.992 56.52L-0.802716 67.9042L-0.261852 68.0845L0.293668 68.2127L2.992 56.52ZM6.32 57.672L11.6866 46.9389L11.5189 46.855L11.3487 46.7765L6.32 57.672ZM7.856 58.44L2.48945 69.1731L3.25222 69.5545L4.06126 69.8242L7.856 58.44ZM9.392 58.824L7.41924 70.6607L9.39201 70.9895L11.3648 70.6607L9.392 58.824ZM19.76 57.544L20.8225 69.4969L20.954 69.4852L21.0852 69.4706L19.76 57.544ZM31.28 56.392L32.3425 68.3449L32.4597 68.3344L32.5767 68.3217L31.28 56.392ZM41.904 55.368L42.8738 67.3287L53.2708 66.4858L53.8833 56.0727L41.904 55.368ZM41.776 49.608L29.7836 50.0363L29.7913 50.2498L29.8065 50.463L41.776 49.608ZM40.752 36.936L52.519 34.5826L50.2403 23.1891L38.7792 25.0993L40.752 36.936ZM34.992 37.576L35.4532 49.5671L35.6661 49.5589L35.8785 49.5432L34.992 37.576ZM28.208 37.96L28.6692 49.9511L28.882 49.9429L29.0945 49.9272L28.208 37.96ZM22.576 38.344V50.344H23.2406L23.9012 50.2706L22.576 38.344ZM21.296 38.6L24.2064 50.2417L24.9965 50.0442L25.7527 49.7417L21.296 38.6ZM20.144 38.984L23.9388 50.3682L24.2733 50.2567L24.6007 50.1257L20.144 38.984ZM17.2 39.624L14.5968 51.3382L14.7214 51.3659L14.8466 51.391L17.2 39.624ZM12.976 36.424L22.7408 29.4491L22.7408 29.4491L12.976 36.424ZM9.648 30.664L-1.42893 35.2794L-1.34821 35.4731L-1.26078 35.6639L9.648 30.664ZM7.472 25.928L2.10544 15.1949L-8.95786 20.7265L-3.09365 31.6172L7.472 25.928ZM10.16 25.928L5.19437 36.8524L5.76775 37.113L6.36526 37.3122L10.16 25.928ZM13.104 27.336L6.66148 37.4599L6.7947 37.5447L6.93011 37.6259L13.104 27.336ZM14.384 28.104L8.21003 38.3939L9.33956 39.0716L10.5892 39.4882L14.384 28.104ZM15.792 28.616L11.3354 39.7577L13.3065 40.5462L15.4285 40.6105L15.792 28.616ZM33.2 27.208L34.644 39.1208L34.7707 39.1054L34.8971 39.0874L33.2 27.208ZM36.656 26.696L38.4807 38.5565L38.4807 38.5565L36.656 26.696ZM39.984 26.312L40.9043 38.2767L51.984 37.4244V26.312H39.984ZM38.32 13.384L49.9482 10.42L49.9482 10.4199L38.32 13.384ZM33.712 2.632L22.9789 -2.73469L19.7898 3.64334L23.8672 9.49351L33.712 2.632ZM34.224 2.12L28.8575 -8.61316L28.1892 -8.27902L27.5675 -7.86455L34.224 2.12ZM34.608 1.73599L24.6234 -4.92048L24.209 -4.29877L23.8748 -3.63044L34.608 1.73599ZM34.736 0.711998L39.2335 -10.4133L18.6056 -18.7523L22.969 3.06536L34.736 0.711998ZM46.128 6.728L39.4716 16.7126L39.5256 16.7486L39.5799 16.784L46.128 6.728ZM53.296 16.072L58.9107 26.6775L67.532 22.1132L64.8246 12.7415L53.296 16.072ZM50.864 19.656L38.9299 18.3998L38.8971 18.7119L38.8806 19.0253L50.864 19.656ZM50.864 23.752L38.8994 24.6724L38.9149 24.8751L38.9374 25.0772L50.864 23.752ZM50.992 25.288H38.992V39.1241L52.689 37.1674L50.992 25.288ZM54.576 24.904L55.431 36.8735L55.431 36.8735L54.576 24.904ZM58.032 24.776V36.776H58.2719L58.5116 36.7664L58.032 24.776ZM64.048 24.264L65.6693 36.154L65.6694 36.154L64.048 24.264ZM69.04 22.216L71.6044 10.4932L66.1697 9.30436L61.7506 12.6837L69.04 22.216ZM76.848 25.16L82.6449 14.6531L82.6449 14.6531L76.848 25.16ZM82.224 29.768L93.5015 33.8689L95.5465 28.2453L92.2853 23.2281L82.224 29.768ZM77.872 33.352L75.1737 21.6593L75.1225 21.6711L75.0715 21.6834L77.872 33.352ZM71.984 34.248L71.4132 22.2616L71.3748 22.2634L71.3363 22.2655L71.984 34.248ZM61.744 34.76L62.0296 46.7566L62.1656 46.7534L62.3015 46.747L61.744 34.76ZM51.632 35.912L49.096 24.183L41.4077 25.8454L39.865 33.5586L51.632 35.912ZM51.376 41.288L63.3678 40.8439L63.3678 40.8438L51.376 41.288ZM51.632 48.072L39.6409 48.5332L39.6484 48.7302L39.6625 48.927L51.632 48.072ZM51.76 51.528H39.76V52.0271L39.8015 52.5245L51.76 51.528ZM51.888 54.344H39.888V67.2001L52.7136 66.3156L51.888 54.344ZM61.744 53.704L62.4925 65.6806L62.6065 65.6735L62.7203 65.6642L61.744 53.704ZM73.136 53.064L73.4359 65.0603L74.4726 65.0343L75.4894 64.831L73.136 53.064ZM74.288 51.144L75.3744 39.1933L73.3498 39.0092L71.3775 39.5023L74.288 51.144ZM85.424 53.448L81.709 64.8585L81.7472 64.8709L81.7856 64.8831L85.424 53.448ZM83.1599 54.511C83.3813 53.9733 83.9132 52.9458 85.0319 51.9287C86.2202 50.8485 87.6588 50.1586 89.0866 49.873L93.7934 73.407C99.8398 72.1977 103.581 67.9497 105.352 63.649L83.1599 54.511ZM89.854 49.7453C89.504 49.7919 88.7299 49.8448 87.4028 49.7816L86.2612 73.7544C88.5181 73.8619 90.8161 73.8294 93.026 73.5347L89.854 49.7453ZM88.8048 49.9313C87.4745 49.7096 86.1904 49.64 85.04 49.64V73.64C85.1347 73.64 85.1669 73.6431 85.1451 73.6415C85.1247 73.6401 85.0246 73.6323 84.8593 73.6047L88.8048 49.9313ZM85.04 49.64C85.0388 49.64 85.0377 49.64 85.0365 49.64C85.0353 49.64 85.0342 49.64 85.033 49.64C85.0318 49.64 85.0307 49.64 85.0295 49.64C85.0283 49.64 85.0272 49.64 85.026 49.64C85.0248 49.64 85.0237 49.64 85.0225 49.64C85.0213 49.64 85.0202 49.64 85.019 49.64C85.0178 49.64 85.0167 49.64 85.0155 49.64C85.0143 49.64 85.0132 49.64 85.012 49.64C85.0108 49.64 85.0097 49.64 85.0085 49.64C85.0073 49.64 85.0062 49.64 85.005 49.64C85.0038 49.64 85.0027 49.64 85.0015 49.64C85.0003 49.64 84.9992 49.64 84.998 49.64C84.9968 49.64 84.9957 49.64 84.9945 49.64C84.9933 49.64 84.9922 49.64 84.991 49.64C84.9898 49.64 84.9887 49.64 84.9875 49.64C84.9863 49.64 84.9852 49.64 84.984 49.64C84.9828 49.64 84.9817 49.64 84.9805 49.64C84.9793 49.64 84.9782 49.64 84.977 49.64C84.9758 49.64 84.9747 49.64 84.9735 49.64C84.9723 49.64 84.9712 49.64 84.97 49.64C84.9688 49.64 84.9677 49.64 84.9665 49.64C84.9653 49.64 84.9642 49.64 84.963 49.64C84.9618 49.64 84.9607 49.64 84.9595 49.64C84.9583 49.64 84.9572 49.64 84.956 49.64C84.9548 49.64 84.9537 49.64 84.9525 49.64C84.9513 49.64 84.9502 49.64 84.949 49.64C84.9478 49.64 84.9467 49.64 84.9455 49.64C84.9443 49.64 84.9432 49.64 84.942 49.64C84.9408 49.64 84.9397 49.64 84.9385 49.64C84.9373 49.64 84.9362 49.64 84.935 49.64C84.9338 49.64 84.9327 49.64 84.9315 49.64C84.9303 49.64 84.9292 49.64 84.928 49.64C84.9268 49.64 84.9257 49.64 84.9245 49.64C84.9233 49.64 84.9222 49.64 84.921 49.64C84.9198 49.64 84.9187 49.64 84.9175 49.64C84.9163 49.64 84.9152 49.64 84.914 49.64C84.9128 49.64 84.9117 49.64 84.9105 49.64C84.9093 49.64 84.9082 49.64 84.907 49.64C84.9058 49.64 84.9047 49.64 84.9035 49.64C84.9023 49.64 84.9012 49.64 84.9 49.64C84.8988 49.64 84.8977 49.64 84.8965 49.64C84.8953 49.64 84.8942 49.64 84.893 49.64C84.8918 49.64 84.8907 49.64 84.8895 49.64C84.8883 49.64 84.8872 49.64 84.886 49.64C84.8848 49.64 84.8837 49.64 84.8825 49.64C84.8813 49.64 84.8802 49.64 84.879 49.64C84.8778 49.64 84.8767 49.64 84.8755 49.64C84.8743 49.64 84.8732 49.64 84.872 49.64C84.8708 49.64 84.8697 49.64 84.8685 49.64C84.8673 49.64 84.8662 49.64 84.865 49.64C84.8638 49.64 84.8627 49.64 84.8615 49.64C84.8603 49.64 84.8592 49.64 84.858 49.64C84.8568 49.64 84.8557 49.64 84.8545 49.64C84.8533 49.64 84.8522 49.64 84.851 49.64C84.8498 49.64 84.8487 49.64 84.8475 49.64C84.8463 49.64 84.8452 49.64 84.844 49.64C84.8428 49.64 84.8417 49.64 84.8405 49.64C84.8393 49.64 84.8382 49.64 84.837 49.64C84.8358 49.64 84.8347 49.64 84.8335 49.64C84.8323 49.64 84.8312 49.64 84.83 49.64C84.8288 49.64 84.8277 49.64 84.8265 49.64C84.8253 49.64 84.8242 49.64 84.823 49.64C84.8218 49.64 84.8207 49.64 84.8195 49.64C84.8183 49.64 84.8172 49.64 84.816 49.64C84.8148 49.64 84.8137 49.64 84.8125 49.64C84.8113 49.64 84.8102 49.64 84.809 49.64C84.8078 49.64 84.8067 49.64 84.8055 49.64C84.8043 49.64 84.8032 49.64 84.802 49.64C84.8008 49.64 84.7997 49.64 84.7985 49.64C84.7973 49.64 84.7962 49.64 84.795 49.64C84.7938 49.64 84.7927 49.64 84.7915 49.64C84.7903 49.64 84.7892 49.64 84.788 49.64C84.7868 49.64 84.7857 49.64 84.7845 49.64C84.7833 49.64 84.7822 49.64 84.781 49.64C84.7798 49.64 84.7787 49.64 84.7775 49.64C84.7763 49.64 84.7752 49.64 84.774 49.64C84.7728 49.64 84.7717 49.64 84.7705 49.64C84.7693 49.64 84.7682 49.64 84.767 49.64C84.7658 49.64 84.7647 49.64 84.7635 49.64C84.7623 49.64 84.7612 49.64 84.76 49.64C84.7588 49.64 84.7577 49.64 84.7565 49.64C84.7553 49.64 84.7542 49.64 84.753 49.64C84.7518 49.64 84.7507 49.64 84.7495 49.64C84.7483 49.64 84.7472 49.64 84.746 49.64C84.7448 49.64 84.7437 49.64 84.7425 49.64C84.7413 49.64 84.7402 49.64 84.739 49.64C84.7378 49.64 84.7367 49.64 84.7355 49.64C84.7343 49.64 84.7332 49.64 84.732 49.64C84.7308 49.64 84.7297 49.64 84.7285 49.64C84.7273 49.64 84.7262 49.64 84.725 49.64C84.7238 49.64 84.7227 49.64 84.7215 49.64C84.7203 49.64 84.7192 49.64 84.718 49.64C84.7168 49.64 84.7157 49.64 84.7145 49.64C84.7133 49.64 84.7122 49.64 84.711 49.64C84.7098 49.64 84.7087 49.64 84.7075 49.64C84.7063 49.64 84.7052 49.64 84.704 49.64C84.7028 49.64 84.7017 49.64 84.7005 49.64C84.6993 49.64 84.6982 49.64 84.697 49.64C84.6958 49.64 84.6947 49.64 84.6935 49.64C84.6923 49.64 84.6912 49.64 84.69 49.64C84.6888 49.64 84.6877 49.64 84.6865 49.64C84.6853 49.64 84.6842 49.64 84.683 49.64C84.6818 49.64 84.6807 49.64 84.6795 49.64C84.6783 49.64 84.6772 49.64 84.676 49.64C84.6748 49.64 84.6737 49.64 84.6725 49.64C84.6713 49.64 84.6702 49.64 84.669 49.64C84.6678 49.64 84.6667 49.64 84.6655 49.64C84.6643 49.64 84.6632 49.64 84.662 49.64C84.6608 49.64 84.6597 49.64 84.6585 49.64C84.6573 49.64 84.6562 49.64 84.655 49.64C84.6538 49.64 84.6527 49.64 84.6515 49.64C84.6503 49.64 84.6492 49.64 84.648 49.64C84.6468 49.64 84.6457 49.64 84.6445 49.64C84.6433 49.64 84.6422 49.64 84.641 49.64C84.6398 49.64 84.6387 49.64 84.6375 49.64C84.6363 49.64 84.6352 49.64 84.634 49.64C84.6328 49.64 84.6317 49.64 84.6305 49.64C84.6293 49.64 84.6282 49.64 84.627 49.64C84.6258 49.64 84.6247 49.64 84.6235 49.64C84.6223 49.64 84.6212 49.64 84.62 49.64C84.6188 49.64 84.6177 49.64 84.6165 49.64C84.6153 49.64 84.6142 49.64 84.613 49.64C84.6118 49.64 84.6107 49.64 84.6095 49.64C84.6083 49.64 84.6072 49.64 84.606 49.64C84.6048 49.64 84.6037 49.64 84.6025 49.64C84.6013 49.64 84.6002 49.64 84.599 49.64C84.5978 49.64 84.5967 49.64 84.5955 49.64C84.5943 49.64 84.5932 49.64 84.592 49.64C84.5908 49.64 84.5897 49.64 84.5885 49.64C84.5873 49.64 84.5862 49.64 84.585 49.64C84.5838 49.64 84.5827 49.64 84.5815 49.64C84.5803 49.64 84.5792 49.64 84.578 49.64C84.5768 49.64 84.5757 49.64 84.5745 49.64C84.5733 49.64 84.5722 49.64 84.571 49.64C84.5698 49.64 84.5687 49.64 84.5675 49.64C84.5663 49.64 84.5652 49.64 84.564 49.64C84.5628 49.64 84.5617 49.64 84.5605 49.64C84.5593 49.64 84.5582 49.64 84.557 49.64C84.5558 49.64 84.5547 49.64 84.5535 49.64C84.5523 49.64 84.5512 49.64 84.55 49.64C84.5488 49.64 84.5477 49.64 84.5465 49.64C84.5453 49.64 84.5442 49.64 84.543 49.64C84.5418 49.64 84.5407 49.64 84.5395 49.64C84.5383 49.64 84.5372 49.64 84.536 49.64C84.5348 49.64 84.5337 49.64 84.5325 49.64C84.5313 49.64 84.5302 49.64 84.529 49.64C84.5278 49.64 84.5267 49.64 84.5255 49.64C84.5243 49.64 84.5232 49.64 84.522 49.64C84.5208 49.64 84.5197 49.64 84.5185 49.64C84.5173 49.64 84.5162 49.64 84.515 49.64C84.5138 49.64 84.5127 49.64 84.5115 49.64C84.5103 49.64 84.5092 49.64 84.508 49.64C84.5068 49.64 84.5057 49.64 84.5045 49.64C84.5033 49.64 84.5022 49.64 84.501 49.64C84.4998 49.64 84.4987 49.64 84.4975 49.64C84.4963 49.64 84.4952 49.64 84.494 49.64C84.4928 49.64 84.4917 49.64 84.4905 49.64C84.4893 49.64 84.4882 49.64 84.487 49.64C84.4858 49.64 84.4847 49.64 84.4835 49.64C84.4823 49.64 84.4812 49.64 84.48 49.64C84.4788 49.64 84.4777 49.64 84.4765 49.64C84.4753 49.64 84.4742 49.64 84.473 49.64C84.4718 49.64 84.4707 49.64 84.4695 49.64C84.4683 49.64 84.4672 49.64 84.466 49.64C84.4648 49.64 84.4637 49.64 84.4625 49.64C84.4613 49.64 84.4602 49.64 84.459 49.64C84.4578 49.64 84.4567 49.64 84.4555 49.64C84.4543 49.64 84.4532 49.64 84.452 49.64C84.4508 49.64 84.4497 49.64 84.4485 49.64C84.4473 49.64 84.4462 49.64 84.445 49.64C84.4438 49.64 84.4427 49.64 84.4415 49.64C84.4403 49.64 84.4392 49.64 84.438 49.64C84.4368 49.64 84.4357 49.64 84.4345 49.64C84.4333 49.64 84.4322 49.64 84.431 49.64C84.4298 49.64 84.4287 49.64 84.4275 49.64C84.4263 49.64 84.4252 49.64 84.424 49.64C84.4228 49.64 84.4217 49.64 84.4205 49.64C84.4193 49.64 84.4182 49.64 84.417 49.64C84.4158 49.64 84.4147 49.64 84.4135 49.64C84.4123 49.64 84.4112 49.64 84.41 49.64C84.4088 49.64 84.4077 49.64 84.4065 49.64C84.4053 49.64 84.4042 49.64 84.403 49.64C84.4018 49.64 84.4007 49.64 84.3995 49.64C84.3983 49.64 84.3972 49.64 84.396 49.64C84.3948 49.64 84.3937 49.64 84.3925 49.64C84.3913 49.64 84.3902 49.64 84.389 49.64C84.3878 49.64 84.3867 49.64 84.3855 49.64C84.3843 49.64 84.3832 49.64 84.382 49.64C84.3808 49.64 84.3797 49.64 84.3785 49.64C84.3773 49.64 84.3762 49.64 84.375 49.64C84.3738 49.64 84.3727 49.64 84.3715 49.64C84.3703 49.64 84.3692 49.64 84.368 49.64C84.3668 49.64 84.3657 49.64 84.3645 49.64C84.3633 49.64 84.3622 49.64 84.361 49.64C84.3598 49.64 84.3587 49.64 84.3575 49.64C84.3563 49.64 84.3552 49.64 84.354 49.64C84.3528 49.64 84.3517 49.64 84.3505 49.64C84.3493 49.64 84.3482 49.64 84.347 49.64C84.3458 49.64 84.3447 49.64 84.3435 49.64C84.3423 49.64 84.3412 49.64 84.34 49.64C84.3388 49.64 84.3377 49.64 84.3365 49.64C84.3353 49.64 84.3342 49.64 84.333 49.64C84.3318 49.64 84.3307 49.64 84.3295 49.64C84.3283 49.64 84.3272 49.64 84.326 49.64C84.3248 49.64 84.3237 49.64 84.3225 49.64C84.3213 49.64 84.3202 49.64 84.319 49.64C84.3178 49.64 84.3167 49.64 84.3155 49.64C84.3143 49.64 84.3132 49.64 84.312 49.64C84.3108 49.64 84.3097 49.64 84.3085 49.64C84.3073 49.64 84.3062 49.64 84.305 49.64C84.3038 49.64 84.3027 49.64 84.3015 49.64C84.3003 49.64 84.2992 49.64 84.298 49.64C84.2968 49.64 84.2957 49.64 84.2945 49.64C84.2933 49.64 84.2922 49.64 84.291 49.64C84.2898 49.64 84.2887 49.64 84.2875 49.64C84.2863 49.64 84.2852 49.64 84.284 49.64C84.2828 49.64 84.2817 49.64 84.2805 49.64C84.2793 49.64 84.2782 49.64 84.277 49.64C84.2758 49.64 84.2747 49.64 84.2735 49.64C84.2723 49.64 84.2712 49.64 84.27 49.64C84.2688 49.64 84.2677 49.64 84.2665 49.64C84.2653 49.64 84.2642 49.64 84.263 49.64C84.2618 49.64 84.2607 49.64 84.2595 49.64C84.2583 49.64 84.2572 49.64 84.256 49.64C84.2548 49.64 84.2537 49.64 84.2525 49.64C84.2513 49.64 84.2502 49.64 84.249 49.64C84.2478 49.64 84.2467 49.64 84.2455 49.64C84.2443 49.64 84.2432 49.64 84.242 49.64C84.2408 49.64 84.2397 49.64 84.2385 49.64C84.2373 49.64 84.2362 49.64 84.235 49.64C84.2338 49.64 84.2327 49.64 84.2315 49.64C84.2303 49.64 84.2292 49.64 84.228 49.64C84.2268 49.64 84.2257 49.64 84.2245 49.64C84.2233 49.64 84.2222 49.64 84.221 49.64C84.2198 49.64 84.2187 49.64 84.2175 49.64C84.2163 49.64 84.2152 49.64 84.214 49.64C84.2128 49.64 84.2117 49.64 84.2105 49.64C84.2093 49.64 84.2082 49.64 84.207 49.64C84.2058 49.64 84.2047 49.64 84.2035 49.64C84.2023 49.64 84.2012 49.64 84.2 49.64C84.1988 49.64 84.1977 49.64 84.1965 49.64C84.1953 49.64 84.1942 49.64 84.193 49.64C84.1918 49.64 84.1907 49.64 84.1895 49.64C84.1883 49.64 84.1872 49.64 84.186 49.64C84.1848 49.64 84.1837 49.64 84.1825 49.64C84.1813 49.64 84.1802 49.64 84.179 49.64C84.1778 49.64 84.1767 49.64 84.1755 49.64C84.1743 49.64 84.1732 49.64 84.172 49.64C84.1708 49.64 84.1697 49.64 84.1685 49.64C84.1673 49.64 84.1662 49.64 84.165 49.64C84.1638 49.64 84.1627 49.64 84.1615 49.64C84.1603 49.64 84.1592 49.64 84.158 49.64C84.1568 49.64 84.1557 49.64 84.1545 49.64C84.1533 49.64 84.1522 49.64 84.151 49.64C84.1498 49.64 84.1487 49.64 84.1475 49.64C84.1463 49.64 84.1452 49.64 84.144 49.64C84.1428 49.64 84.1417 49.64 84.1405 49.64C84.1393 49.64 84.1382 49.64 84.137 49.64C84.1358 49.64 84.1347 49.64 84.1335 49.64C84.1323 49.64 84.1312 49.64 84.13 49.64C84.1288 49.64 84.1277 49.64 84.1265 49.64C84.1253 49.64 84.1242 49.64 84.123 49.64C84.1218 49.64 84.1207 49.64 84.1195 49.64C84.1183 49.64 84.1172 49.64 84.116 49.64C84.1148 49.64 84.1137 49.64 84.1125 49.64C84.1113 49.64 84.1102 49.64 84.109 49.64C84.1078 49.64 84.1067 49.64 84.1055 49.64C84.1043 49.64 84.1032 49.64 84.102 49.64C84.1008 49.64 84.0997 49.64 84.0985 49.64C84.0973 49.64 84.0962 49.64 84.095 49.64C84.0938 49.64 84.0927 49.64 84.0915 49.64C84.0903 49.64 84.0892 49.64 84.088 49.64C84.0868 49.64 84.0857 49.64 84.0845 49.64C84.0833 49.64 84.0822 49.64 84.081 49.64C84.0798 49.64 84.0787 49.64 84.0775 49.64C84.0763 49.64 84.0752 49.64 84.074 49.64C84.0728 49.64 84.0717 49.64 84.0705 49.64C84.0693 49.64 84.0682 49.64 84.067 49.64C84.0658 49.64 84.0647 49.64 84.0635 49.64C84.0623 49.64 84.0612 49.64 84.06 49.64C84.0588 49.64 84.0577 49.64 84.0565 49.64C84.0553 49.64 84.0542 49.64 84.053 49.64C84.0518 49.64 84.0507 49.64 84.0495 49.64C84.0483 49.64 84.0472 49.64 84.046 49.64C84.0448 49.64 84.0437 49.64 84.0425 49.64C84.0413 49.64 84.0402 49.64 84.039 49.64C84.0378 49.64 84.0367 49.64 84.0355 49.64C84.0343 49.64 84.0332 49.64 84.032 49.64C84.0308 49.64 84.0297 49.64 84.0285 49.64C84.0273 49.64 84.0262 49.64 84.025 49.64C84.0238 49.64 84.0227 49.64 84.0215 49.64C84.0203 49.64 84.0192 49.64 84.018 49.64C84.0168 49.64 84.0157 49.64 84.0145 49.64C84.0133 49.64 84.0122 49.64 84.011 49.64C84.0098 49.64 84.0087 49.64 84.0075 49.64C84.0063 49.64 84.0052 49.64 84.004 49.64C84.0028 49.64 84.0017 49.64 84.0005 49.64C83.9993 49.64 83.9982 49.64 83.997 49.64C83.9958 49.64 83.9947 49.64 83.9935 49.64C83.9923 49.64 83.9912 49.64 83.99 49.64C83.9888 49.64 83.9877 49.64 83.9865 49.64C83.9853 49.64 83.9842 49.64 83.983 49.64C83.9818 49.64 83.9807 49.64 83.9795 49.64C83.9783 49.64 83.9772 49.64 83.976 49.64C83.9748 49.64 83.9737 49.64 83.9725 49.64C83.9713 49.64 83.9702 49.64 83.969 49.64C83.9678 49.64 83.9667 49.64 83.9655 49.64C83.9643 49.64 83.9632 49.64 83.962 49.64C83.9608 49.64 83.9597 49.64 83.9585 49.64C83.9573 49.64 83.9562 49.64 83.955 49.64C83.9538 49.64 83.9527 49.64 83.9515 49.64C83.9503 49.64 83.9492 49.64 83.948 49.64C83.9468 49.64 83.9457 49.64 83.9445 49.64C83.9433 49.64 83.9422 49.64 83.941 49.64C83.9398 49.64 83.9387 49.64 83.9375 49.64C83.9363 49.64 83.9352 49.64 83.934 49.64C83.9328 49.64 83.9317 49.64 83.9305 49.64C83.9293 49.64 83.9282 49.64 83.927 49.64C83.9258 49.64 83.9247 49.64 83.9235 49.64C83.9223 49.64 83.9212 49.64 83.92 49.64C83.9188 49.64 83.9177 49.64 83.9165 49.64C83.9153 49.64 83.9142 49.64 83.913 49.64C83.9118 49.64 83.9107 49.64 83.9095 49.64C83.9083 49.64 83.9072 49.64 83.906 49.64C83.9048 49.64 83.9037 49.64 83.9025 49.64C83.9013 49.64 83.9002 49.64 83.899 49.64C83.8978 49.64 83.8967 49.64 83.8955 49.64C83.8943 49.64 83.8932 49.64 83.892 49.64C83.8908 49.64 83.8897 49.64 83.8885 49.64C83.8873 49.64 83.8862 49.64 83.885 49.64C83.8838 49.64 83.8827 49.64 83.8815 49.64C83.8803 49.64 83.8792 49.64 83.878 49.64C83.8768 49.64 83.8757 49.64 83.8745 49.64C83.8733 49.64 83.8722 49.64 83.871 49.64C83.8698 49.64 83.8687 49.64 83.8675 49.64C83.8663 49.64 83.8652 49.64 83.864 49.64C83.8628 49.64 83.8617 49.64 83.8605 49.64C83.8593 49.64 83.8582 49.64 83.857 49.64C83.8558 49.64 83.8547 49.64 83.8535 49.64C83.8523 49.64 83.8512 49.64 83.85 49.64C83.8488 49.64 83.8477 49.64 83.8465 49.64C83.8453 49.64 83.8442 49.64 83.843 49.64C83.8418 49.64 83.8407 49.64 83.8395 49.64C83.8383 49.64 83.8372 49.64 83.836 49.64C83.8348 49.64 83.8337 49.64 83.8325 49.64C83.8313 49.64 83.8302 49.64 83.829 49.64C83.8278 49.64 83.8267 49.64 83.8255 49.64C83.8243 49.64 83.8232 49.64 83.822 49.64C83.8208 49.64 83.8197 49.64 83.8185 49.64C83.8173 49.64 83.8162 49.64 83.815 49.64C83.8138 49.64 83.8127 49.64 83.8115 49.64C83.8103 49.64 83.8092 49.64 83.808 49.64C83.8068 49.64 83.8057 49.64 83.8045 49.64C83.8033 49.64 83.8022 49.64 83.801 49.64C83.7998 49.64 83.7987 49.64 83.7975 49.64C83.7963 49.64 83.7952 49.64 83.794 49.64C83.7928 49.64 83.7917 49.64 83.7905 49.64C83.7893 49.64 83.7882 49.64 83.787 49.64C83.7858 49.64 83.7847 49.64 83.7835 49.64C83.7823 49.64 83.7812 49.64 83.78 49.64C83.7788 49.64 83.7777 49.64 83.7765 49.64C83.7753 49.64 83.7742 49.64 83.773 49.64C83.7718 49.64 83.7707 49.64 83.7695 49.64C83.7683 49.64 83.7672 49.64 83.766 49.64C83.7648 49.64 83.7637 49.64 83.7625 49.64C83.7613 49.64 83.7602 49.64 83.759 49.64C83.7578 49.64 83.7567 49.64 83.7555 49.64C83.7543 49.64 83.7532 49.64 83.752 49.64C83.7508 49.64 83.7497 49.64 83.7485 49.64C83.7473 49.64 83.7462 49.64 83.745 49.64C83.7438 49.64 83.7427 49.64 83.7415 49.64C83.7403 49.64 83.7392 49.64 83.738 49.64C83.7368 49.64 83.7357 49.64 83.7345 49.64C83.7333 49.64 83.7322 49.64 83.731 49.64C83.7298 49.64 83.7287 49.64 83.7275 49.64C83.7263 49.64 83.7252 49.64 83.724 49.64C83.7228 49.64 83.7217 49.64 83.7205 49.64C83.7193 49.64 83.7182 49.64 83.717 49.64C83.7158 49.64 83.7147 49.64 83.7135 49.64C83.7123 49.64 83.7112 49.64 83.71 49.64C83.7088 49.64 83.7077 49.64 83.7065 49.64C83.7053 49.64 83.7042 49.64 83.703 49.64C83.7018 49.64 83.7007 49.64 83.6995 49.64C83.6983 49.64 83.6972 49.64 83.696 49.64C83.6948 49.64 83.6937 49.64 83.6925 49.64C83.6913 49.64 83.6902 49.64 83.689 49.64C83.6878 49.64 83.6867 49.64 83.6855 49.64C83.6843 49.64 83.6832 49.64 83.682 49.64C83.6808 49.64 83.6797 49.64 83.6785 49.64C83.6773 49.64 83.6762 49.64 83.675 49.64C83.6738 49.64 83.6727 49.64 83.6715 49.64C83.6703 49.64 83.6692 49.64 83.668 49.64C83.6668 49.64 83.6657 49.64 83.6645 49.64C83.6633 49.64 83.6622 49.64 83.661 49.64C83.6598 49.64 83.6587 49.64 83.6575 49.64C83.6563 49.64 83.6552 49.64 83.654 49.64C83.6528 49.64 83.6517 49.64 83.6505 49.64C83.6493 49.64 83.6482 49.64 83.647 49.64C83.6458 49.64 83.6447 49.64 83.6435 49.64C83.6423 49.64 83.6412 49.64 83.64 49.64C83.6388 49.64 83.6377 49.64 83.6365 49.64C83.6353 49.64 83.6342 49.64 83.633 49.64C83.6318 49.64 83.6307 49.64 83.6295 49.64C83.6283 49.64 83.6272 49.64 83.626 49.64C83.6248 49.64 83.6237 49.64 83.6225 49.64C83.6213 49.64 83.6202 49.64 83.619 49.64C83.6178 49.64 83.6167 49.64 83.6155 49.64C83.6143 49.64 83.6132 49.64 83.612 49.64C83.6108 49.64 83.6097 49.64 83.6085 49.64C83.6073 49.64 83.6062 49.64 83.605 49.64C83.6038 49.64 83.6027 49.64 83.6015 49.64C83.6003 49.64 83.5992 49.64 83.598 49.64C83.5968 49.64 83.5957 49.64 83.5945 49.64C83.5933 49.64 83.5922 49.64 83.591 49.64C83.5898 49.64 83.5887 49.64 83.5875 49.64C83.5863 49.64 83.5852 49.64 83.584 49.64C83.5828 49.64 83.5817 49.64 83.5805 49.64C83.5793 49.64 83.5782 49.64 83.577 49.64C83.5758 49.64 83.5747 49.64 83.5735 49.64C83.5723 49.64 83.5712 49.64 83.57 49.64C83.5688 49.64 83.5677 49.64 83.5665 49.64C83.5653 49.64 83.5642 49.64 83.563 49.64C83.5618 49.64 83.5607 49.64 83.5595 49.64C83.5583 49.64 83.5572 49.64 83.556 49.64C83.5548 49.64 83.5537 49.64 83.5525 49.64C83.5513 49.64 83.5502 49.64 83.549 49.64C83.5478 49.64 83.5467 49.64 83.5455 49.64C83.5443 49.64 83.5432 49.64 83.542 49.64C83.5408 49.64 83.5397 49.64 83.5385 49.64C83.5373 49.64 83.5362 49.64 83.535 49.64C83.5338 49.64 83.5327 49.64 83.5315 49.64C83.5303 49.64 83.5292 49.64 83.528 49.64C83.5268 49.64 83.5257 49.64 83.5245 49.64C83.5233 49.64 83.5222 49.64 83.521 49.64C83.5198 49.64 83.5187 49.64 83.5175 49.64C83.5163 49.64 83.5152 49.64 83.514 49.64C83.5128 49.64 83.5117 49.64 83.5105 49.64C83.5093 49.64 83.5082 49.64 83.507 49.64C83.5058 49.64 83.5047 49.64 83.5035 49.64C83.5023 49.64 83.5012 49.64 83.5 49.64C83.4988 49.64 83.4977 49.64 83.4965 49.64C83.4953 49.64 83.4942 49.64 83.493 49.64C83.4918 49.64 83.4907 49.64 83.4895 49.64C83.4883 49.64 83.4872 49.64 83.486 49.64C83.4848 49.64 83.4837 49.64 83.4825 49.64C83.4813 49.64 83.4802 49.64 83.479 49.64C83.4778 49.64 83.4767 49.64 83.4755 49.64C83.4743 49.64 83.4732 49.64 83.472 49.64C83.4708 49.64 83.4697 49.64 83.4685 49.64C83.4673 49.64 83.4662 49.64 83.465 49.64C83.4638 49.64 83.4627 49.64 83.4615 49.64C83.4603 49.64 83.4592 49.64 83.458 49.64C83.4568 49.64 83.4557 49.64 83.4545 49.64C83.4533 49.64 83.4522 49.64 83.451 49.64C83.4498 49.64 83.4487 49.64 83.4475 49.64C83.4463 49.64 83.4452 49.64 83.444 49.64C83.4428 49.64 83.4417 49.64 83.4405 49.64C83.4393 49.64 83.4382 49.64 83.437 49.64C83.4358 49.64 83.4347 49.64 83.4335 49.64C83.4323 49.64 83.4312 49.64 83.43 49.64C83.4288 49.64 83.4277 49.64 83.4265 49.64C83.4253 49.64 83.4242 49.64 83.423 49.64C83.4218 49.64 83.4207 49.64 83.4195 49.64C83.4183 49.64 83.4172 49.64 83.416 49.64C83.4148 49.64 83.4137 49.64 83.4125 49.64C83.4113 49.64 83.4102 49.64 83.409 49.64C83.4078 49.64 83.4067 49.64 83.4055 49.64C83.4043 49.64 83.4032 49.64 83.402 49.64C83.4008 49.64 83.3997 49.64 83.3985 49.64C83.3973 49.64 83.3962 49.64 83.395 49.64C83.3938 49.64 83.3927 49.64 83.3915 49.64C83.3903 49.64 83.3892 49.64 83.388 49.64C83.3868 49.64 83.3857 49.64 83.3845 49.64C83.3833 49.64 83.3822 49.64 83.381 49.64C83.3798 49.64 83.3787 49.64 83.3775 49.64C83.3763 49.64 83.3752 49.64 83.374 49.64C83.3728 49.64 83.3717 49.64 83.3705 49.64C83.3693 49.64 83.3682 49.64 83.367 49.64C83.3658 49.64 83.3647 49.64 83.3635 49.64C83.3623 49.64 83.3612 49.64 83.36 49.64C83.3588 49.64 83.3577 49.64 83.3565 49.64C83.3553 49.64 83.3542 49.64 83.353 49.64C83.3518 49.64 83.3507 49.64 83.3495 49.64C83.3483 49.64 83.3472 49.64 83.346 49.64C83.3448 49.64 83.3437 49.64 83.3425 49.64C83.3413 49.64 83.3402 49.64 83.339 49.64C83.3378 49.64 83.3367 49.64 83.3355 49.64C83.3343 49.64 83.3332 49.64 83.332 49.64C83.3308 49.64 83.3297 49.64 83.3285 49.64C83.3273 49.64 83.3262 49.64 83.325 49.64C83.3238 49.64 83.3227 49.64 83.3215 49.64C83.3203 49.64 83.3192 49.64 83.318 49.64C83.3168 49.64 83.3157 49.64 83.3145 49.64C83.3133 49.64 83.3122 49.64 83.311 49.64C83.3098 49.64 83.3087 49.64 83.3075 49.64C83.3063 49.64 83.3052 49.64 83.304 49.64C83.3028 49.64 83.3017 49.64 83.3005 49.64C83.2993 49.64 83.2982 49.64 83.297 49.64C83.2958 49.64 83.2947 49.64 83.2935 49.64C83.2923 49.64 83.2912 49.64 83.29 49.64C83.2888 49.64 83.2877 49.64 83.2865 49.64C83.2853 49.64 83.2842 49.64 83.283 49.64C83.2818 49.64 83.2807 49.64 83.2795 49.64C83.2783 49.64 83.2772 49.64 83.276 49.64C83.2748 49.64 83.2737 49.64 83.2725 49.64C83.2713 49.64 83.2702 49.64 83.269 49.64C83.2678 49.64 83.2667 49.64 83.2655 49.64C83.2643 49.64 83.2632 49.64 83.262 49.64C83.2608 49.64 83.2597 49.64 83.2585 49.64C83.2573 49.64 83.2562 49.64 83.255 49.64C83.2538 49.64 83.2527 49.64 83.2515 49.64C83.2503 49.64 83.2492 49.64 83.248 49.64V73.64C83.2492 73.64 83.2503 73.64 83.2515 73.64C83.2527 73.64 83.2538 73.64 83.255 73.64C83.2562 73.64 83.2573 73.64 83.2585 73.64C83.2597 73.64 83.2608 73.64 83.262 73.64C83.2632 73.64 83.2643 73.64 83.2655 73.64C83.2667 73.64 83.2678 73.64 83.269 73.64C83.2702 73.64 83.2713 73.64 83.2725 73.64C83.2737 73.64 83.2748 73.64 83.276 73.64C83.2772 73.64 83.2783 73.64 83.2795 73.64C83.2807 73.64 83.2818 73.64 83.283 73.64C83.2842 73.64 83.2853 73.64 83.2865 73.64C83.2877 73.64 83.2888 73.64 83.29 73.64C83.2912 73.64 83.2923 73.64 83.2935 73.64C83.2947 73.64 83.2958 73.64 83.297 73.64C83.2982 73.64 83.2993 73.64 83.3005 73.64C83.3017 73.64 83.3028 73.64 83.304 73.64C83.3052 73.64 83.3063 73.64 83.3075 73.64C83.3087 73.64 83.3098 73.64 83.311 73.64C83.3122 73.64 83.3133 73.64 83.3145 73.64C83.3157 73.64 83.3168 73.64 83.318 73.64C83.3192 73.64 83.3203 73.64 83.3215 73.64C83.3227 73.64 83.3238 73.64 83.325 73.64C83.3262 73.64 83.3273 73.64 83.3285 73.64C83.3297 73.64 83.3308 73.64 83.332 73.64C83.3332 73.64 83.3343 73.64 83.3355 73.64C83.3367 73.64 83.3378 73.64 83.339 73.64C83.3402 73.64 83.3413 73.64 83.3425 73.64C83.3437 73.64 83.3448 73.64 83.346 73.64C83.3472 73.64 83.3483 73.64 83.3495 73.64C83.3507 73.64 83.3518 73.64 83.353 73.64C83.3542 73.64 83.3553 73.64 83.3565 73.64C83.3577 73.64 83.3588 73.64 83.36 73.64C83.3612 73.64 83.3623 73.64 83.3635 73.64C83.3647 73.64 83.3658 73.64 83.367 73.64C83.3682 73.64 83.3693 73.64 83.3705 73.64C83.3717 73.64 83.3728 73.64 83.374 73.64C83.3752 73.64 83.3763 73.64 83.3775 73.64C83.3787 73.64 83.3798 73.64 83.381 73.64C83.3822 73.64 83.3833 73.64 83.3845 73.64C83.3857 73.64 83.3868 73.64 83.388 73.64C83.3892 73.64 83.3903 73.64 83.3915 73.64C83.3927 73.64 83.3938 73.64 83.395 73.64C83.3962 73.64 83.3973 73.64 83.3985 73.64C83.3997 73.64 83.4008 73.64 83.402 73.64C83.4032 73.64 83.4043 73.64 83.4055 73.64C83.4067 73.64 83.4078 73.64 83.409 73.64C83.4102 73.64 83.4113 73.64 83.4125 73.64C83.4137 73.64 83.4148 73.64 83.416 73.64C83.4172 73.64 83.4183 73.64 83.4195 73.64C83.4207 73.64 83.4218 73.64 83.423 73.64C83.4242 73.64 83.4253 73.64 83.4265 73.64C83.4277 73.64 83.4288 73.64 83.43 73.64C83.4312 73.64 83.4323 73.64 83.4335 73.64C83.4347 73.64 83.4358 73.64 83.437 73.64C83.4382 73.64 83.4393 73.64 83.4405 73.64C83.4417 73.64 83.4428 73.64 83.444 73.64C83.4452 73.64 83.4463 73.64 83.4475 73.64C83.4487 73.64 83.4498 73.64 83.451 73.64C83.4522 73.64 83.4533 73.64 83.4545 73.64C83.4557 73.64 83.4568 73.64 83.458 73.64C83.4592 73.64 83.4603 73.64 83.4615 73.64C83.4627 73.64 83.4638 73.64 83.465 73.64C83.4662 73.64 83.4673 73.64 83.4685 73.64C83.4697 73.64 83.4708 73.64 83.472 73.64C83.4732 73.64 83.4743 73.64 83.4755 73.64C83.4767 73.64 83.4778 73.64 83.479 73.64C83.4802 73.64 83.4813 73.64 83.4825 73.64C83.4837 73.64 83.4848 73.64 83.486 73.64C83.4872 73.64 83.4883 73.64 83.4895 73.64C83.4907 73.64 83.4918 73.64 83.493 73.64C83.4942 73.64 83.4953 73.64 83.4965 73.64C83.4977 73.64 83.4988 73.64 83.5 73.64C83.5012 73.64 83.5023 73.64 83.5035 73.64C83.5047 73.64 83.5058 73.64 83.507 73.64C83.5082 73.64 83.5093 73.64 83.5105 73.64C83.5117 73.64 83.5128 73.64 83.514 73.64C83.5152 73.64 83.5163 73.64 83.5175 73.64C83.5187 73.64 83.5198 73.64 83.521 73.64C83.5222 73.64 83.5233 73.64 83.5245 73.64C83.5257 73.64 83.5268 73.64 83.528 73.64C83.5292 73.64 83.5303 73.64 83.5315 73.64C83.5327 73.64 83.5338 73.64 83.535 73.64C83.5362 73.64 83.5373 73.64 83.5385 73.64C83.5397 73.64 83.5408 73.64 83.542 73.64C83.5432 73.64 83.5443 73.64 83.5455 73.64C83.5467 73.64 83.5478 73.64 83.549 73.64C83.5502 73.64 83.5513 73.64 83.5525 73.64C83.5537 73.64 83.5548 73.64 83.556 73.64C83.5572 73.64 83.5583 73.64 83.5595 73.64C83.5607 73.64 83.5618 73.64 83.563 73.64C83.5642 73.64 83.5653 73.64 83.5665 73.64C83.5677 73.64 83.5688 73.64 83.57 73.64C83.5712 73.64 83.5723 73.64 83.5735 73.64C83.5747 73.64 83.5758 73.64 83.577 73.64C83.5782 73.64 83.5793 73.64 83.5805 73.64C83.5817 73.64 83.5828 73.64 83.584 73.64C83.5852 73.64 83.5863 73.64 83.5875 73.64C83.5887 73.64 83.5898 73.64 83.591 73.64C83.5922 73.64 83.5933 73.64 83.5945 73.64C83.5957 73.64 83.5968 73.64 83.598 73.64C83.5992 73.64 83.6003 73.64 83.6015 73.64C83.6027 73.64 83.6038 73.64 83.605 73.64C83.6062 73.64 83.6073 73.64 83.6085 73.64C83.6097 73.64 83.6108 73.64 83.612 73.64C83.6132 73.64 83.6143 73.64 83.6155 73.64C83.6167 73.64 83.6178 73.64 83.619 73.64C83.6202 73.64 83.6213 73.64 83.6225 73.64C83.6237 73.64 83.6248 73.64 83.626 73.64C83.6272 73.64 83.6283 73.64 83.6295 73.64C83.6307 73.64 83.6318 73.64 83.633 73.64C83.6342 73.64 83.6353 73.64 83.6365 73.64C83.6377 73.64 83.6388 73.64 83.64 73.64C83.6412 73.64 83.6423 73.64 83.6435 73.64C83.6447 73.64 83.6458 73.64 83.647 73.64C83.6482 73.64 83.6493 73.64 83.6505 73.64C83.6517 73.64 83.6528 73.64 83.654 73.64C83.6552 73.64 83.6563 73.64 83.6575 73.64C83.6587 73.64 83.6598 73.64 83.661 73.64C83.6622 73.64 83.6633 73.64 83.6645 73.64C83.6657 73.64 83.6668 73.64 83.668 73.64C83.6692 73.64 83.6703 73.64 83.6715 73.64C83.6727 73.64 83.6738 73.64 83.675 73.64C83.6762 73.64 83.6773 73.64 83.6785 73.64C83.6797 73.64 83.6808 73.64 83.682 73.64C83.6832 73.64 83.6843 73.64 83.6855 73.64C83.6867 73.64 83.6878 73.64 83.689 73.64C83.6902 73.64 83.6913 73.64 83.6925 73.64C83.6937 73.64 83.6948 73.64 83.696 73.64C83.6972 73.64 83.6983 73.64 83.6995 73.64C83.7007 73.64 83.7018 73.64 83.703 73.64C83.7042 73.64 83.7053 73.64 83.7065 73.64C83.7077 73.64 83.7088 73.64 83.71 73.64C83.7112 73.64 83.7123 73.64 83.7135 73.64C83.7147 73.64 83.7158 73.64 83.717 73.64C83.7182 73.64 83.7193 73.64 83.7205 73.64C83.7217 73.64 83.7228 73.64 83.724 73.64C83.7252 73.64 83.7263 73.64 83.7275 73.64C83.7287 73.64 83.7298 73.64 83.731 73.64C83.7322 73.64 83.7333 73.64 83.7345 73.64C83.7357 73.64 83.7368 73.64 83.738 73.64C83.7392 73.64 83.7403 73.64 83.7415 73.64C83.7427 73.64 83.7438 73.64 83.745 73.64C83.7462 73.64 83.7473 73.64 83.7485 73.64C83.7497 73.64 83.7508 73.64 83.752 73.64C83.7532 73.64 83.7543 73.64 83.7555 73.64C83.7567 73.64 83.7578 73.64 83.759 73.64C83.7602 73.64 83.7613 73.64 83.7625 73.64C83.7637 73.64 83.7648 73.64 83.766 73.64C83.7672 73.64 83.7683 73.64 83.7695 73.64C83.7707 73.64 83.7718 73.64 83.773 73.64C83.7742 73.64 83.7753 73.64 83.7765 73.64C83.7777 73.64 83.7788 73.64 83.78 73.64C83.7812 73.64 83.7823 73.64 83.7835 73.64C83.7847 73.64 83.7858 73.64 83.787 73.64C83.7882 73.64 83.7893 73.64 83.7905 73.64C83.7917 73.64 83.7928 73.64 83.794 73.64C83.7952 73.64 83.7963 73.64 83.7975 73.64C83.7987 73.64 83.7998 73.64 83.801 73.64C83.8022 73.64 83.8033 73.64 83.8045 73.64C83.8057 73.64 83.8068 73.64 83.808 73.64C83.8092 73.64 83.8103 73.64 83.8115 73.64C83.8127 73.64 83.8138 73.64 83.815 73.64C83.8162 73.64 83.8173 73.64 83.8185 73.64C83.8197 73.64 83.8208 73.64 83.822 73.64C83.8232 73.64 83.8243 73.64 83.8255 73.64C83.8267 73.64 83.8278 73.64 83.829 73.64C83.8302 73.64 83.8313 73.64 83.8325 73.64C83.8337 73.64 83.8348 73.64 83.836 73.64C83.8372 73.64 83.8383 73.64 83.8395 73.64C83.8407 73.64 83.8418 73.64 83.843 73.64C83.8442 73.64 83.8453 73.64 83.8465 73.64C83.8477 73.64 83.8488 73.64 83.85 73.64C83.8512 73.64 83.8523 73.64 83.8535 73.64C83.8547 73.64 83.8558 73.64 83.857 73.64C83.8582 73.64 83.8593 73.64 83.8605 73.64C83.8617 73.64 83.8628 73.64 83.864 73.64C83.8652 73.64 83.8663 73.64 83.8675 73.64C83.8687 73.64 83.8698 73.64 83.871 73.64C83.8722 73.64 83.8733 73.64 83.8745 73.64C83.8757 73.64 83.8768 73.64 83.878 73.64C83.8792 73.64 83.8803 73.64 83.8815 73.64C83.8827 73.64 83.8838 73.64 83.885 73.64C83.8862 73.64 83.8873 73.64 83.8885 73.64C83.8897 73.64 83.8908 73.64 83.892 73.64C83.8932 73.64 83.8943 73.64 83.8955 73.64C83.8967 73.64 83.8978 73.64 83.899 73.64C83.9002 73.64 83.9013 73.64 83.9025 73.64C83.9037 73.64 83.9048 73.64 83.906 73.64C83.9072 73.64 83.9083 73.64 83.9095 73.64C83.9107 73.64 83.9118 73.64 83.913 73.64C83.9142 73.64 83.9153 73.64 83.9165 73.64C83.9177 73.64 83.9188 73.64 83.92 73.64C83.9212 73.64 83.9223 73.64 83.9235 73.64C83.9247 73.64 83.9258 73.64 83.927 73.64C83.9282 73.64 83.9293 73.64 83.9305 73.64C83.9317 73.64 83.9328 73.64 83.934 73.64C83.9352 73.64 83.9363 73.64 83.9375 73.64C83.9387 73.64 83.9398 73.64 83.941 73.64C83.9422 73.64 83.9433 73.64 83.9445 73.64C83.9457 73.64 83.9468 73.64 83.948 73.64C83.9492 73.64 83.9503 73.64 83.9515 73.64C83.9527 73.64 83.9538 73.64 83.955 73.64C83.9562 73.64 83.9573 73.64 83.9585 73.64C83.9597 73.64 83.9608 73.64 83.962 73.64C83.9632 73.64 83.9643 73.64 83.9655 73.64C83.9667 73.64 83.9678 73.64 83.969 73.64C83.9702 73.64 83.9713 73.64 83.9725 73.64C83.9737 73.64 83.9748 73.64 83.976 73.64C83.9772 73.64 83.9783 73.64 83.9795 73.64C83.9807 73.64 83.9818 73.64 83.983 73.64C83.9842 73.64 83.9853 73.64 83.9865 73.64C83.9877 73.64 83.9888 73.64 83.99 73.64C83.9912 73.64 83.9923 73.64 83.9935 73.64C83.9947 73.64 83.9958 73.64 83.997 73.64C83.9982 73.64 83.9993 73.64 84.0005 73.64C84.0017 73.64 84.0028 73.64 84.004 73.64C84.0052 73.64 84.0063 73.64 84.0075 73.64C84.0087 73.64 84.0098 73.64 84.011 73.64C84.0122 73.64 84.0133 73.64 84.0145 73.64C84.0157 73.64 84.0168 73.64 84.018 73.64C84.0192 73.64 84.0203 73.64 84.0215 73.64C84.0227 73.64 84.0238 73.64 84.025 73.64C84.0262 73.64 84.0273 73.64 84.0285 73.64C84.0297 73.64 84.0308 73.64 84.032 73.64C84.0332 73.64 84.0343 73.64 84.0355 73.64C84.0367 73.64 84.0378 73.64 84.039 73.64C84.0402 73.64 84.0413 73.64 84.0425 73.64C84.0437 73.64 84.0448 73.64 84.046 73.64C84.0472 73.64 84.0483 73.64 84.0495 73.64C84.0507 73.64 84.0518 73.64 84.053 73.64C84.0542 73.64 84.0553 73.64 84.0565 73.64C84.0577 73.64 84.0588 73.64 84.06 73.64C84.0612 73.64 84.0623 73.64 84.0635 73.64C84.0647 73.64 84.0658 73.64 84.067 73.64C84.0682 73.64 84.0693 73.64 84.0705 73.64C84.0717 73.64 84.0728 73.64 84.074 73.64C84.0752 73.64 84.0763 73.64 84.0775 73.64C84.0787 73.64 84.0798 73.64 84.081 73.64C84.0822 73.64 84.0833 73.64 84.0845 73.64C84.0857 73.64 84.0868 73.64 84.088 73.64C84.0892 73.64 84.0903 73.64 84.0915 73.64C84.0927 73.64 84.0938 73.64 84.095 73.64C84.0962 73.64 84.0973 73.64 84.0985 73.64C84.0997 73.64 84.1008 73.64 84.102 73.64C84.1032 73.64 84.1043 73.64 84.1055 73.64C84.1067 73.64 84.1078 73.64 84.109 73.64C84.1102 73.64 84.1113 73.64 84.1125 73.64C84.1137 73.64 84.1148 73.64 84.116 73.64C84.1172 73.64 84.1183 73.64 84.1195 73.64C84.1207 73.64 84.1218 73.64 84.123 73.64C84.1242 73.64 84.1253 73.64 84.1265 73.64C84.1277 73.64 84.1288 73.64 84.13 73.64C84.1312 73.64 84.1323 73.64 84.1335 73.64C84.1347 73.64 84.1358 73.64 84.137 73.64C84.1382 73.64 84.1393 73.64 84.1405 73.64C84.1417 73.64 84.1428 73.64 84.144 73.64C84.1452 73.64 84.1463 73.64 84.1475 73.64C84.1487 73.64 84.1498 73.64 84.151 73.64C84.1522 73.64 84.1533 73.64 84.1545 73.64C84.1557 73.64 84.1568 73.64 84.158 73.64C84.1592 73.64 84.1603 73.64 84.1615 73.64C84.1627 73.64 84.1638 73.64 84.165 73.64C84.1662 73.64 84.1673 73.64 84.1685 73.64C84.1697 73.64 84.1708 73.64 84.172 73.64C84.1732 73.64 84.1743 73.64 84.1755 73.64C84.1767 73.64 84.1778 73.64 84.179 73.64C84.1802 73.64 84.1813 73.64 84.1825 73.64C84.1837 73.64 84.1848 73.64 84.186 73.64C84.1872 73.64 84.1883 73.64 84.1895 73.64C84.1907 73.64 84.1918 73.64 84.193 73.64C84.1942 73.64 84.1953 73.64 84.1965 73.64C84.1977 73.64 84.1988 73.64 84.2 73.64C84.2012 73.64 84.2023 73.64 84.2035 73.64C84.2047 73.64 84.2058 73.64 84.207 73.64C84.2082 73.64 84.2093 73.64 84.2105 73.64C84.2117 73.64 84.2128 73.64 84.214 73.64C84.2152 73.64 84.2163 73.64 84.2175 73.64C84.2187 73.64 84.2198 73.64 84.221 73.64C84.2222 73.64 84.2233 73.64 84.2245 73.64C84.2257 73.64 84.2268 73.64 84.228 73.64C84.2292 73.64 84.2303 73.64 84.2315 73.64C84.2327 73.64 84.2338 73.64 84.235 73.64C84.2362 73.64 84.2373 73.64 84.2385 73.64C84.2397 73.64 84.2408 73.64 84.242 73.64C84.2432 73.64 84.2443 73.64 84.2455 73.64C84.2467 73.64 84.2478 73.64 84.249 73.64C84.2502 73.64 84.2513 73.64 84.2525 73.64C84.2537 73.64 84.2548 73.64 84.256 73.64C84.2572 73.64 84.2583 73.64 84.2595 73.64C84.2607 73.64 84.2618 73.64 84.263 73.64C84.2642 73.64 84.2653 73.64 84.2665 73.64C84.2677 73.64 84.2688 73.64 84.27 73.64C84.2712 73.64 84.2723 73.64 84.2735 73.64C84.2747 73.64 84.2758 73.64 84.277 73.64C84.2782 73.64 84.2793 73.64 84.2805 73.64C84.2817 73.64 84.2828 73.64 84.284 73.64C84.2852 73.64 84.2863 73.64 84.2875 73.64C84.2887 73.64 84.2898 73.64 84.291 73.64C84.2922 73.64 84.2933 73.64 84.2945 73.64C84.2957 73.64 84.2968 73.64 84.298 73.64C84.2992 73.64 84.3003 73.64 84.3015 73.64C84.3027 73.64 84.3038 73.64 84.305 73.64C84.3062 73.64 84.3073 73.64 84.3085 73.64C84.3097 73.64 84.3108 73.64 84.312 73.64C84.3132 73.64 84.3143 73.64 84.3155 73.64C84.3167 73.64 84.3178 73.64 84.319 73.64C84.3202 73.64 84.3213 73.64 84.3225 73.64C84.3237 73.64 84.3248 73.64 84.326 73.64C84.3272 73.64 84.3283 73.64 84.3295 73.64C84.3307 73.64 84.3318 73.64 84.333 73.64C84.3342 73.64 84.3353 73.64 84.3365 73.64C84.3377 73.64 84.3388 73.64 84.34 73.64C84.3412 73.64 84.3423 73.64 84.3435 73.64C84.3447 73.64 84.3458 73.64 84.347 73.64C84.3482 73.64 84.3493 73.64 84.3505 73.64C84.3517 73.64 84.3528 73.64 84.354 73.64C84.3552 73.64 84.3563 73.64 84.3575 73.64C84.3587 73.64 84.3598 73.64 84.361 73.64C84.3622 73.64 84.3633 73.64 84.3645 73.64C84.3657 73.64 84.3668 73.64 84.368 73.64C84.3692 73.64 84.3703 73.64 84.3715 73.64C84.3727 73.64 84.3738 73.64 84.375 73.64C84.3762 73.64 84.3773 73.64 84.3785 73.64C84.3797 73.64 84.3808 73.64 84.382 73.64C84.3832 73.64 84.3843 73.64 84.3855 73.64C84.3867 73.64 84.3878 73.64 84.389 73.64C84.3902 73.64 84.3913 73.64 84.3925 73.64C84.3937 73.64 84.3948 73.64 84.396 73.64C84.3972 73.64 84.3983 73.64 84.3995 73.64C84.4007 73.64 84.4018 73.64 84.403 73.64C84.4042 73.64 84.4053 73.64 84.4065 73.64C84.4077 73.64 84.4088 73.64 84.41 73.64C84.4112 73.64 84.4123 73.64 84.4135 73.64C84.4147 73.64 84.4158 73.64 84.417 73.64C84.4182 73.64 84.4193 73.64 84.4205 73.64C84.4217 73.64 84.4228 73.64 84.424 73.64C84.4252 73.64 84.4263 73.64 84.4275 73.64C84.4287 73.64 84.4298 73.64 84.431 73.64C84.4322 73.64 84.4333 73.64 84.4345 73.64C84.4357 73.64 84.4368 73.64 84.438 73.64C84.4392 73.64 84.4403 73.64 84.4415 73.64C84.4427 73.64 84.4438 73.64 84.445 73.64C84.4462 73.64 84.4473 73.64 84.4485 73.64C84.4497 73.64 84.4508 73.64 84.452 73.64C84.4532 73.64 84.4543 73.64 84.4555 73.64C84.4567 73.64 84.4578 73.64 84.459 73.64C84.4602 73.64 84.4613 73.64 84.4625 73.64C84.4637 73.64 84.4648 73.64 84.466 73.64C84.4672 73.64 84.4683 73.64 84.4695 73.64C84.4707 73.64 84.4718 73.64 84.473 73.64C84.4742 73.64 84.4753 73.64 84.4765 73.64C84.4777 73.64 84.4788 73.64 84.48 73.64C84.4812 73.64 84.4823 73.64 84.4835 73.64C84.4847 73.64 84.4858 73.64 84.487 73.64C84.4882 73.64 84.4893 73.64 84.4905 73.64C84.4917 73.64 84.4928 73.64 84.494 73.64C84.4952 73.64 84.4963 73.64 84.4975 73.64C84.4987 73.64 84.4998 73.64 84.501 73.64C84.5022 73.64 84.5033 73.64 84.5045 73.64C84.5057 73.64 84.5068 73.64 84.508 73.64C84.5092 73.64 84.5103 73.64 84.5115 73.64C84.5127 73.64 84.5138 73.64 84.515 73.64C84.5162 73.64 84.5173 73.64 84.5185 73.64C84.5197 73.64 84.5208 73.64 84.522 73.64C84.5232 73.64 84.5243 73.64 84.5255 73.64C84.5267 73.64 84.5278 73.64 84.529 73.64C84.5302 73.64 84.5313 73.64 84.5325 73.64C84.5337 73.64 84.5348 73.64 84.536 73.64C84.5372 73.64 84.5383 73.64 84.5395 73.64C84.5407 73.64 84.5418 73.64 84.543 73.64C84.5442 73.64 84.5453 73.64 84.5465 73.64C84.5477 73.64 84.5488 73.64 84.55 73.64C84.5512 73.64 84.5523 73.64 84.5535 73.64C84.5547 73.64 84.5558 73.64 84.557 73.64C84.5582 73.64 84.5593 73.64 84.5605 73.64C84.5617 73.64 84.5628 73.64 84.564 73.64C84.5652 73.64 84.5663 73.64 84.5675 73.64C84.5687 73.64 84.5698 73.64 84.571 73.64C84.5722 73.64 84.5733 73.64 84.5745 73.64C84.5757 73.64 84.5768 73.64 84.578 73.64C84.5792 73.64 84.5803 73.64 84.5815 73.64C84.5827 73.64 84.5838 73.64 84.585 73.64C84.5862 73.64 84.5873 73.64 84.5885 73.64C84.5897 73.64 84.5908 73.64 84.592 73.64C84.5932 73.64 84.5943 73.64 84.5955 73.64C84.5967 73.64 84.5978 73.64 84.599 73.64C84.6002 73.64 84.6013 73.64 84.6025 73.64C84.6037 73.64 84.6048 73.64 84.606 73.64C84.6072 73.64 84.6083 73.64 84.6095 73.64C84.6107 73.64 84.6118 73.64 84.613 73.64C84.6142 73.64 84.6153 73.64 84.6165 73.64C84.6177 73.64 84.6188 73.64 84.62 73.64C84.6212 73.64 84.6223 73.64 84.6235 73.64C84.6247 73.64 84.6258 73.64 84.627 73.64C84.6282 73.64 84.6293 73.64 84.6305 73.64C84.6317 73.64 84.6328 73.64 84.634 73.64C84.6352 73.64 84.6363 73.64 84.6375 73.64C84.6387 73.64 84.6398 73.64 84.641 73.64C84.6422 73.64 84.6433 73.64 84.6445 73.64C84.6457 73.64 84.6468 73.64 84.648 73.64C84.6492 73.64 84.6503 73.64 84.6515 73.64C84.6527 73.64 84.6538 73.64 84.655 73.64C84.6562 73.64 84.6573 73.64 84.6585 73.64C84.6597 73.64 84.6608 73.64 84.662 73.64C84.6632 73.64 84.6643 73.64 84.6655 73.64C84.6667 73.64 84.6678 73.64 84.669 73.64C84.6702 73.64 84.6713 73.64 84.6725 73.64C84.6737 73.64 84.6748 73.64 84.676 73.64C84.6772 73.64 84.6783 73.64 84.6795 73.64C84.6807 73.64 84.6818 73.64 84.683 73.64C84.6842 73.64 84.6853 73.64 84.6865 73.64C84.6877 73.64 84.6888 73.64 84.69 73.64C84.6912 73.64 84.6923 73.64 84.6935 73.64C84.6947 73.64 84.6958 73.64 84.697 73.64C84.6982 73.64 84.6993 73.64 84.7005 73.64C84.7017 73.64 84.7028 73.64 84.704 73.64C84.7052 73.64 84.7063 73.64 84.7075 73.64C84.7087 73.64 84.7098 73.64 84.711 73.64C84.7122 73.64 84.7133 73.64 84.7145 73.64C84.7157 73.64 84.7168 73.64 84.718 73.64C84.7192 73.64 84.7203 73.64 84.7215 73.64C84.7227 73.64 84.7238 73.64 84.725 73.64C84.7262 73.64 84.7273 73.64 84.7285 73.64C84.7297 73.64 84.7308 73.64 84.732 73.64C84.7332 73.64 84.7343 73.64 84.7355 73.64C84.7367 73.64 84.7378 73.64 84.739 73.64C84.7402 73.64 84.7413 73.64 84.7425 73.64C84.7437 73.64 84.7448 73.64 84.746 73.64C84.7472 73.64 84.7483 73.64 84.7495 73.64C84.7507 73.64 84.7518 73.64 84.753 73.64C84.7542 73.64 84.7553 73.64 84.7565 73.64C84.7577 73.64 84.7588 73.64 84.76 73.64C84.7612 73.64 84.7623 73.64 84.7635 73.64C84.7647 73.64 84.7658 73.64 84.767 73.64C84.7682 73.64 84.7693 73.64 84.7705 73.64C84.7717 73.64 84.7728 73.64 84.774 73.64C84.7752 73.64 84.7763 73.64 84.7775 73.64C84.7787 73.64 84.7798 73.64 84.781 73.64C84.7822 73.64 84.7833 73.64 84.7845 73.64C84.7857 73.64 84.7868 73.64 84.788 73.64C84.7892 73.64 84.7903 73.64 84.7915 73.64C84.7927 73.64 84.7938 73.64 84.795 73.64C84.7962 73.64 84.7973 73.64 84.7985 73.64C84.7997 73.64 84.8008 73.64 84.802 73.64C84.8032 73.64 84.8043 73.64 84.8055 73.64C84.8067 73.64 84.8078 73.64 84.809 73.64C84.8102 73.64 84.8113 73.64 84.8125 73.64C84.8137 73.64 84.8148 73.64 84.816 73.64C84.8172 73.64 84.8183 73.64 84.8195 73.64C84.8207 73.64 84.8218 73.64 84.823 73.64C84.8242 73.64 84.8253 73.64 84.8265 73.64C84.8277 73.64 84.8288 73.64 84.83 73.64C84.8312 73.64 84.8323 73.64 84.8335 73.64C84.8347 73.64 84.8358 73.64 84.837 73.64C84.8382 73.64 84.8393 73.64 84.8405 73.64C84.8417 73.64 84.8428 73.64 84.844 73.64C84.8452 73.64 84.8463 73.64 84.8475 73.64C84.8487 73.64 84.8498 73.64 84.851 73.64C84.8522 73.64 84.8533 73.64 84.8545 73.64C84.8557 73.64 84.8568 73.64 84.858 73.64C84.8592 73.64 84.8603 73.64 84.8615 73.64C84.8627 73.64 84.8638 73.64 84.865 73.64C84.8662 73.64 84.8673 73.64 84.8685 73.64C84.8697 73.64 84.8708 73.64 84.872 73.64C84.8732 73.64 84.8743 73.64 84.8755 73.64C84.8767 73.64 84.8778 73.64 84.879 73.64C84.8802 73.64 84.8813 73.64 84.8825 73.64C84.8837 73.64 84.8848 73.64 84.886 73.64C84.8872 73.64 84.8883 73.64 84.8895 73.64C84.8907 73.64 84.8918 73.64 84.893 73.64C84.8942 73.64 84.8953 73.64 84.8965 73.64C84.8977 73.64 84.8988 73.64 84.9 73.64C84.9012 73.64 84.9023 73.64 84.9035 73.64C84.9047 73.64 84.9058 73.64 84.907 73.64C84.9082 73.64 84.9093 73.64 84.9105 73.64C84.9117 73.64 84.9128 73.64 84.914 73.64C84.9152 73.64 84.9163 73.64 84.9175 73.64C84.9187 73.64 84.9198 73.64 84.921 73.64C84.9222 73.64 84.9233 73.64 84.9245 73.64C84.9257 73.64 84.9268 73.64 84.928 73.64C84.9292 73.64 84.9303 73.64 84.9315 73.64C84.9327 73.64 84.9338 73.64 84.935 73.64C84.9362 73.64 84.9373 73.64 84.9385 73.64C84.9397 73.64 84.9408 73.64 84.942 73.64C84.9432 73.64 84.9443 73.64 84.9455 73.64C84.9467 73.64 84.9478 73.64 84.949 73.64C84.9502 73.64 84.9513 73.64 84.9525 73.64C84.9537 73.64 84.9548 73.64 84.956 73.64C84.9572 73.64 84.9583 73.64 84.9595 73.64C84.9607 73.64 84.9618 73.64 84.963 73.64C84.9642 73.64 84.9653 73.64 84.9665 73.64C84.9677 73.64 84.9688 73.64 84.97 73.64C84.9712 73.64 84.9723 73.64 84.9735 73.64C84.9747 73.64 84.9758 73.64 84.977 73.64C84.9782 73.64 84.9793 73.64 84.9805 73.64C84.9817 73.64 84.9828 73.64 84.984 73.64C84.9852 73.64 84.9863 73.64 84.9875 73.64C84.9887 73.64 84.9898 73.64 84.991 73.64C84.9922 73.64 84.9933 73.64 84.9945 73.64C84.9957 73.64 84.9968 73.64 84.998 73.64C84.9992 73.64 85.0003 73.64 85.0015 73.64C85.0027 73.64 85.0038 73.64 85.005 73.64C85.0062 73.64 85.0073 73.64 85.0085 73.64C85.0097 73.64 85.0108 73.64 85.012 73.64C85.0132 73.64 85.0143 73.64 85.0155 73.64C85.0167 73.64 85.0178 73.64 85.019 73.64C85.0202 73.64 85.0213 73.64 85.0225 73.64C85.0237 73.64 85.0248 73.64 85.026 73.64C85.0272 73.64 85.0283 73.64 85.0295 73.64C85.0307 73.64 85.0318 73.64 85.033 73.64C85.0342 73.64 85.0353 73.64 85.0365 73.64C85.0377 73.64 85.0388 73.64 85.04 73.64V49.64ZM83.0173 49.6422C78.5208 49.7287 73.5632 49.8581 68.1472 50.03L68.9088 74.018C74.2448 73.8486 79.1005 73.722 83.4787 73.6378L83.0173 49.6422ZM68.1411 50.0302C62.4612 50.2135 56.8215 50.6717 51.2236 51.4059L54.3444 75.2021C59.1572 74.5709 64.0135 74.1759 68.9149 74.0178L68.1411 50.0302ZM40.8074 62.5555C40.6862 64.495 40.7007 66.7798 40.7922 69.2521L64.7758 68.3639C64.6967 66.2282 64.7112 64.8437 64.7606 64.0525L40.8074 62.5555ZM40.8193 69.7283C40.9856 71.8896 41.1528 74.2716 41.3209 76.8766L65.2711 75.3314C65.0978 72.6458 64.9237 70.1638 64.7487 67.8877L40.8193 69.7283ZM41.3296 77.0015C41.5771 80.3009 41.7839 83.6906 41.9496 87.1708L65.9224 86.0292C65.7468 82.3414 65.5269 78.7337 65.2624 75.2065L41.3296 77.0015ZM41.9665 87.455C42.1901 90.5857 42.1651 92.9972 41.9918 94.7881L65.8802 97.0999C66.2189 93.6001 66.1939 89.7823 65.9055 85.745L41.9665 87.455ZM44.7571 88.2144C44.6712 88.3164 45.1014 87.7573 46.15 87.1823C47.3414 86.5289 49.2501 85.9181 51.554 86.2253L48.382 110.015C55.826 111.007 60.8483 106.365 63.1149 103.674L44.7571 88.2144ZM50.7662 86.1466C51.6509 86.2056 52.5396 86.4379 53.3498 86.828C54.1398 87.2083 54.6798 87.6533 54.9973 87.9707L38.0267 104.941C40.8229 107.737 44.6135 109.79 49.1698 110.093L50.7662 86.1466ZM54.9973 87.9707C55.1362 88.1096 55.1927 88.1984 55.1876 88.1905C55.1805 88.1796 55.1131 88.0724 55.0116 87.8313L32.8924 97.1447C34.0514 99.8975 35.6967 102.611 38.0267 104.941L54.9973 87.9707ZM55.2783 88.5238C54.9898 87.6994 54.9226 87.1929 54.9095 86.9583L30.9465 88.2897C31.1041 91.1271 31.7196 93.8633 32.6257 96.4522L55.2783 88.5238ZM54.9095 86.9584C54.9107 86.9794 54.9171 87.1077 54.9031 87.3246C54.8892 87.5398 54.8523 87.8896 54.7487 88.3383C54.5432 89.2289 54.0218 90.7182 52.7269 92.1981L34.6651 76.3939C30.9646 80.6231 30.8004 85.6602 30.9465 88.2896L54.9095 86.9584ZM55.6818 84.8807C55.8762 80.8946 55.8275 76.9082 55.536 72.9243L31.6 74.6757C31.8205 77.6891 31.8571 80.7001 31.7103 83.7113L55.6818 84.8807ZM55.536 72.9243C55.2692 69.2781 54.9536 65.9269 54.5848 62.884L30.7592 65.772C31.073 68.3611 31.3548 71.3246 31.6 74.6757L55.536 72.9243ZM41.6755 52.3695C40.6921 52.4514 39.1031 52.5769 36.8876 52.7473L38.7284 76.6767C40.9503 76.5057 42.6039 76.3753 43.6686 76.2865L41.6755 52.3695ZM37.3468 52.7209C34.8643 52.8163 32.1652 53.0044 29.2639 53.2764L31.5041 77.1716C34.0642 76.9316 36.3144 76.7783 38.2692 76.7031L37.3468 52.7209ZM29.2281 53.2798C26.4313 53.5505 23.7097 53.8677 21.0643 54.2325L24.3437 78.0075C26.6477 77.6897 29.046 77.4095 31.5399 77.1682L29.2281 53.2798ZM21.0644 54.2325C18.2004 54.6276 15.4348 55.1712 12.9464 55.957L20.1736 78.843C20.9279 78.6048 22.2583 78.2951 24.3436 78.0075L21.0644 54.2325ZM12.7653 56.0158C10.4501 56.7875 7.87146 58.094 5.64272 60.3227L22.6133 77.2933C21.5792 78.3274 20.6219 78.6951 20.3547 78.7842L12.7653 56.0158ZM6.31851 59.6969C8.48214 57.8424 10.7355 57.576 11.696 57.576V81.576C14.7045 81.576 18.5792 80.7976 21.9375 77.9191L6.31851 59.6969ZM11.696 57.576C13.5167 57.576 14.6153 58.3015 14.8 58.44L0.400003 77.64C3.31538 79.8265 7.14467 81.576 11.696 81.576V57.576ZM15.1671 58.7266C14.6797 58.3306 14.1559 57.7934 13.6161 57.0461L-5.84015 71.0979C-4.16121 73.4226 -2.21038 75.5307 0.0328866 77.3534L15.1671 58.7266ZM13.6162 57.0461C12.7996 55.9155 12.2668 55.0209 11.9331 54.3534L-9.53313 65.0866C-8.50151 67.1498 -7.24226 69.1565 -5.84015 71.0979L13.6162 57.0461ZM12.2961 55.151C12.1094 54.6975 12.066 54.5336 12.0836 54.5964C12.0948 54.6366 12.1416 54.8076 12.1888 55.0844C12.2336 55.3467 12.304 55.848 12.304 56.52H-11.696C-11.696 59.7874 -10.5135 62.7898 -9.89614 64.289L12.2961 55.151ZM5.17764 67.4857C2.50045 68.6756 0.179915 68.2317 -0.802716 67.9042L6.78672 45.1358C3.75609 44.1256 -0.356445 43.6817 -4.56964 45.5542L5.17764 67.4857ZM0.293668 68.2127C0.544875 68.2707 0.875259 68.3755 1.29132 68.5675L11.3487 46.7765C9.54608 45.9445 7.65779 45.2813 5.69033 44.8273L0.293668 68.2127ZM0.953406 68.4051C1.46542 68.6611 1.97743 68.9171 2.48945 69.1731L13.2226 47.7069C12.7106 47.4509 12.1986 47.1949 11.6866 46.9389L0.953406 68.4051ZM4.06126 69.8242C5.14433 70.1852 6.26506 70.4684 7.41924 70.6607L11.3648 46.9873C11.4949 47.009 11.5917 47.0361 11.6507 47.0558L4.06126 69.8242ZM11.3648 70.6607C14.0741 70.2092 17.219 69.8172 20.8225 69.4969L18.6975 45.5911C14.621 45.9535 10.8539 46.4148 7.41922 46.9873L11.3648 70.6607ZM21.0852 69.4706C24.8379 69.0536 28.5903 68.6784 32.3425 68.3449L30.2175 44.4391C26.2897 44.7883 22.3621 45.181 18.4348 45.6174L21.0852 69.4706ZM32.5767 68.3217C36.4184 67.9042 39.8482 67.5741 42.8738 67.3287L40.9342 43.4073C37.6451 43.6739 33.9923 44.0265 29.9833 44.4623L32.5767 68.3217ZM53.8833 56.0727C54.0124 53.8785 53.9328 51.3753 53.7455 48.753L29.8065 50.463C29.9605 52.6194 29.9663 53.9561 29.9247 54.6633L53.8833 56.0727ZM53.7684 49.1797C53.6779 46.6478 53.5423 44.1162 53.3615 41.585L29.4225 43.295C29.583 45.5425 29.7034 47.7896 29.7836 50.0363L53.7684 49.1797ZM53.3615 41.585C53.1793 39.0335 52.9238 36.6066 52.519 34.5826L28.985 39.2894C29.0922 39.8254 29.2634 41.0678 29.4225 43.295L53.3615 41.585ZM38.7792 25.0993C37.7299 25.2742 36.2014 25.4535 34.1055 25.6088L35.8785 49.5432C38.3906 49.3571 40.7021 49.1098 42.7248 48.7727L38.7792 25.0993ZM34.5308 25.5849C32.1647 25.6759 29.7615 25.8121 27.3215 25.9928L29.0945 49.9272C31.2625 49.7666 33.382 49.6468 35.4532 49.5671L34.5308 25.5849ZM27.7468 25.9689C25.3523 26.061 23.1677 26.2044 21.2508 26.4174L23.9012 50.2706C25.0563 50.1423 26.6264 50.0297 28.6692 49.9511L27.7468 25.9689ZM22.576 26.344C20.5085 26.344 18.5734 26.7647 16.8393 27.4583L25.7527 49.7417C24.872 50.094 23.7902 50.344 22.576 50.344V26.344ZM18.3856 26.9583C17.3873 27.2079 16.4745 27.5274 15.6873 27.8423L24.6007 50.1257C24.6243 50.1163 24.6051 50.1247 24.5467 50.1442C24.4896 50.1632 24.374 50.1998 24.2064 50.2417L18.3856 26.9583ZM16.3493 27.5998C15.8373 27.7705 15.3253 27.9411 14.8133 28.1118L22.4027 50.8802C22.9147 50.7095 23.4267 50.5389 23.9388 50.3682L16.3493 27.5998ZM14.8133 28.1118C15.8112 27.7792 17.4948 27.4453 19.5534 27.857L14.8466 51.391C17.7585 51.9734 20.3808 51.5542 22.4027 50.8802L14.8133 28.1118ZM19.8032 27.9098C22.1339 28.4277 22.9869 29.7937 22.7408 29.4491L3.2112 43.3989C5.52506 46.6383 9.19415 50.1376 14.5968 51.3382L19.8032 27.9098ZM22.7408 29.4491C21.9141 28.2918 21.1851 27.0349 20.5568 25.6641L-1.26078 35.6639C-0.0117159 38.3891 1.4779 40.9722 3.2112 43.3989L22.7408 29.4491ZM20.7249 26.0486C19.8149 23.8645 18.9126 21.8637 18.0377 20.2388L-3.09365 31.6172C-2.77393 32.211 -2.22554 33.3675 -1.42893 35.2794L20.7249 26.0486ZM12.8386 36.6611C11.7096 37.2256 10.3188 37.608 8.784 37.608C7.27915 37.608 6.0503 37.2415 5.19437 36.8524L15.1256 15.0036C11.195 13.2169 6.48536 13.0049 2.10544 15.1949L12.8386 36.6611ZM6.36526 37.3122C6.43015 37.3338 6.525 37.3731 6.66148 37.4599L19.5465 17.2121C17.8057 16.1043 15.9379 15.2048 13.9547 14.5438L6.36526 37.3122ZM6.93011 37.6259C7.35675 37.8819 7.78339 38.1379 8.21003 38.3939L20.558 17.8141C20.1313 17.5581 19.7046 17.3021 19.2779 17.0461L6.93011 37.6259ZM10.5892 39.4882C10.9155 39.5969 11.1605 39.6878 11.3354 39.7577L20.2486 17.4743C19.5702 17.2029 18.8765 16.9524 18.1788 16.7198L10.5892 39.4882ZM15.4285 40.6105C18.8578 40.7144 22.3369 40.5569 25.8586 40.1544L23.1334 16.3096C20.6817 16.5898 18.3582 16.6883 16.1555 16.6215L15.4285 40.6105ZM25.8586 40.1544C28.8708 39.8101 31.7993 39.4656 34.644 39.1208L31.756 15.2952C28.9687 15.633 26.0946 15.9712 23.1334 16.3096L25.8586 40.1544ZM34.8971 39.0874C36.1312 38.9111 37.3258 38.7341 38.4807 38.5565L34.8313 14.8355C33.7675 14.9992 32.6582 15.1636 31.5029 15.3286L34.8971 39.0874ZM38.4807 38.5565C39.2927 38.4315 40.1003 38.3385 40.9043 38.2767L39.0637 14.3473C37.649 14.4562 36.238 14.6191 34.8313 14.8355L38.4807 38.5565ZM51.984 26.312C51.984 20.9945 51.2915 15.6897 49.9482 10.42L26.6918 16.348C27.5672 19.7823 27.984 23.0962 27.984 26.312H51.984ZM49.9482 10.4199C48.587 5.07984 46.5534 0.0699165 43.5568 -4.22952L23.8672 9.49351C24.796 10.8261 25.8344 12.9842 26.6918 16.348L49.9482 10.4199ZM44.4451 7.99869C43.7814 9.32596 42.9857 10.2649 42.3893 10.8613C41.7881 11.4624 41.2403 11.8646 40.8805 12.1045L27.5675 -7.86455C26.5301 -7.17293 24.4043 -5.58542 22.9789 -2.73469L44.4451 7.99869ZM39.5905 12.8532C42.0836 11.6066 44.0947 9.59548 45.3412 7.10243L23.8748 -3.63044C24.9506 -5.78215 26.7057 -7.5373 28.8575 -8.61316L39.5905 12.8532ZM44.5926 8.39246C47.1513 4.55439 46.9511 0.599097 46.503 -1.64137L22.969 3.06536C22.6916 1.67823 22.406 -1.5944 24.6234 -4.92048L44.5926 8.39246ZM30.2385 11.8373C33.4959 13.1541 36.5695 14.7779 39.4716 16.7126L52.7844 -3.25661C48.5185 -6.10056 43.9974 -8.48747 39.2335 -10.4133L30.2385 11.8373ZM39.5799 16.784C41.0839 17.7633 41.5359 18.601 41.7674 19.4025L64.8246 12.7415C62.8374 5.86298 58.5108 0.471387 52.6761 -3.32798L39.5799 16.784ZM47.6814 5.46654C42.728 8.08892 39.5224 12.7716 38.9299 18.3998L62.7981 20.9122C62.7037 21.8088 62.3701 23.0435 61.5297 24.282C60.6914 25.5175 59.6783 26.2711 58.9107 26.6775L47.6814 5.46654ZM38.8806 19.0253C38.7792 20.9518 38.7608 22.8717 38.8994 24.6724L62.8287 22.8316C62.7965 22.4137 62.7781 21.6029 62.8474 20.2867L38.8806 19.0253ZM38.9374 25.0772C38.9548 25.2338 38.9687 25.3654 38.9796 25.474C38.9905 25.5838 38.9974 25.6603 39.0015 25.7085C39.0058 25.7603 39.0049 25.7575 39.0025 25.7136C39.0012 25.69 38.9988 25.6439 38.9967 25.5798C38.9946 25.5179 38.992 25.4173 38.992 25.288H62.992C62.992 24.2555 62.8633 23.0808 62.7906 22.4268L38.9374 25.0772ZM52.689 37.1674C53.6063 37.0364 54.5201 36.9386 55.431 36.8735L53.7211 12.9345C52.2426 13.0401 50.7671 13.1983 49.295 13.4086L52.689 37.1674ZM55.431 36.8735C56.3634 36.8069 57.2294 36.776 58.032 36.776V12.776C56.6159 12.776 55.178 12.8304 53.721 12.9345L55.431 36.8735ZM58.5116 36.7664C60.9799 36.6677 63.3693 36.4676 65.6693 36.154L62.4267 12.374C60.972 12.5724 59.3508 12.7136 57.5524 12.7856L58.5116 36.7664ZM65.6694 36.154C69.5279 35.6278 73.1623 34.1702 76.3294 31.7483L61.7506 12.6837C61.8508 12.6071 61.9896 12.5235 62.1493 12.458C62.3067 12.3934 62.4119 12.3761 62.4266 12.374L65.6694 36.154ZM66.4756 33.9388C68.0631 34.2861 69.5783 34.8543 71.0511 35.6669L82.6449 14.6531C79.1684 12.735 75.4782 11.3406 71.6044 10.4932L66.4756 33.9388ZM71.0511 35.6669C71.7074 36.029 72.0715 36.3039 72.2385 36.4471C72.4003 36.5858 72.3223 36.5534 72.1627 36.3079L92.2853 23.2281C89.7661 19.3525 86.2104 16.6202 82.6449 14.6531L71.0511 35.6669ZM70.9465 25.6671C71.2903 24.7216 71.9599 23.6617 72.9955 22.8088C73.9754 22.0019 74.8515 21.7337 75.1737 21.6593L80.5703 45.0447C86.1 43.7686 91.2161 40.1539 93.5015 33.8689L70.9465 25.6671ZM75.0715 21.6834C73.5147 22.057 72.3096 22.2189 71.4132 22.2616L72.5548 46.2344C75.2424 46.1064 77.9626 45.671 80.6725 45.0206L75.0715 21.6834ZM71.3363 22.2655C68.2133 22.4343 64.8304 22.6035 61.1865 22.773L62.3015 46.747C65.9963 46.5752 69.44 46.403 72.6317 46.2305L71.3363 22.2655ZM61.4584 22.7634C57.1989 22.8648 53.0689 23.324 49.096 24.183L54.168 47.641C56.5098 47.1346 59.1211 46.8258 62.0296 46.7566L61.4584 22.7634ZM39.865 33.5586C39.3362 36.2028 39.2863 39.0876 39.3842 41.7322L63.3678 40.8438C63.3343 39.9403 63.3396 39.2655 63.3624 38.7868C63.3863 38.2851 63.4228 38.146 63.399 38.2654L39.865 33.5586ZM39.3842 41.7321C39.4698 44.0416 39.5553 46.3086 39.6409 48.5332L63.6231 47.6108C63.538 45.398 63.4529 43.1424 63.3678 40.8439L39.3842 41.7321ZM39.6625 48.927C39.7291 49.8593 39.76 50.7254 39.76 51.528H63.76C63.76 50.112 63.7056 48.674 63.6015 47.217L39.6625 48.927ZM39.8015 52.5245C39.8645 53.2814 39.888 53.8821 39.888 54.344H63.888C63.888 53.0992 63.8261 51.8226 63.7186 50.5315L39.8015 52.5245ZM52.7136 66.3156C55.1515 66.1474 58.408 65.9359 62.4925 65.6806L60.9955 41.7274C56.888 41.9841 53.5738 42.1992 51.0624 42.3724L52.7136 66.3156ZM62.7203 65.6642C66.7252 65.3373 70.2923 65.1388 73.4359 65.0603L72.8361 41.0677C69.153 41.1598 65.1255 41.388 60.7677 41.7438L62.7203 65.6642ZM75.4894 64.831C78.1023 64.3084 81.1809 62.8308 83.3808 59.7509C85.4141 56.9042 85.776 53.9653 85.776 52.168H61.776C61.776 50.8827 62.0312 48.3491 63.8512 45.8011C65.8378 43.0199 68.5964 41.7343 70.7826 41.297L75.4894 64.831ZM85.776 52.168C85.776 52.7843 85.7248 54.6552 84.6371 56.8306C83.3059 59.493 80.7389 61.9006 77.1985 62.7857L71.3775 39.5023C67.4958 40.4727 64.6728 43.0936 63.1709 46.0974C61.9125 48.6141 61.776 50.9544 61.776 52.168H85.776ZM73.2016 63.0947C76.0417 63.3529 78.8727 63.935 81.709 64.8585L89.139 42.0375C84.6366 40.5716 80.0436 39.6178 75.3744 39.1933L73.2016 63.0947ZM81.7856 64.8831C83.764 65.5126 84.6177 66.2587 85.0373 66.7622L103.475 51.3978C99.6276 46.7813 94.5933 43.7727 89.0624 42.0129L81.7856 64.8831Z" fill="black" mask="url(#path-1-outside-1_25_56)"/>
</svg>
