<svg width="238" height="240" viewBox="0 0 238 240" fill="none" xmlns="http://www.w3.org/2000/svg">
<g filter="url(#filter0_d_27_59)">
<path d="M115.771 34.4161C117.369 32.2306 120.631 32.2306 122.229 34.4161L154.319 78.3042C154.813 78.9794 155.506 79.4828 156.3 79.7437L207.957 96.7011C210.529 97.5455 211.537 100.648 209.952 102.843L178.129 146.925C177.639 147.603 177.374 148.417 177.372 149.254L177.207 203.622C177.199 206.329 174.56 208.247 171.983 207.418L120.225 190.774C119.428 190.518 118.572 190.518 117.775 190.774L66.0172 207.418C63.4399 208.247 60.8009 206.329 60.7927 203.622L60.628 149.254C60.6255 148.417 60.3608 147.603 59.8712 146.925L28.0475 102.843C26.4629 100.648 27.4709 97.5455 30.0431 96.7011L81.6996 79.7437C82.4943 79.4828 83.1873 78.9794 83.681 78.3042L115.771 34.4161Z" fill="#BFDBFE"/>
</g>
<defs>
<filter id="filter0_d_27_59" x="-12" y="-2" width="262" height="262" filterUnits="userSpaceOnUse" color-interpolation-filters="sRGB">
<feFlood flood-opacity="0" result="BackgroundImageFix"/>
<feColorMatrix in="SourceAlpha" type="matrix" values="0 0 0 0 0 0 0 0 0 0 0 0 0 0 0 0 0 0 127 0" result="hardAlpha"/>
<feOffset/>
<feGaussianBlur stdDeviation="16"/>
<feComposite in2="hardAlpha" operator="out"/>
<feColorMatrix type="matrix" values="0 0 0 0 0.74902 0 0 0 0 0.858824 0 0 0 0 0.996078 0 0 0 0.25 0"/>
<feBlend mode="normal" in2="BackgroundImageFix" result="effect1_dropShadow_27_59"/>
<feBlend mode="normal" in="SourceGraphic" in2="effect1_dropShadow_27_59" result="shape"/>
</filter>
</defs>
</svg>
